<svg width="20" height="20" viewBox="0 0 20 20" fill="none" xmlns="http://www.w3.org/2000/svg">
<path fill-rule="evenodd" clip-rule="evenodd" d="M5.46883 5.04838C5.46887 4.78321 5.57423 4.52892 5.76173 4.34142C5.94923 4.15392 6.20352 4.04857 6.46868 4.04853L14.954 4.04853C15.2191 4.04857 15.4734 4.15392 15.6609 4.34142C15.8484 4.52892 15.9538 4.78321 15.9538 5.04838V13.5337C15.9493 13.7958 15.8419 14.0457 15.6549 14.2295C15.4679 14.4133 15.2162 14.5163 14.954 14.5163C14.6918 14.5163 14.44 14.4133 14.253 14.2295C14.066 14.0457 13.9587 13.7958 13.9541 13.5337V7.46244L5.76158 15.655C5.57404 15.8425 5.31969 15.9479 5.05447 15.9479C4.78925 15.9479 4.5349 15.8425 4.34736 15.655C4.15983 15.4674 4.05447 15.2131 4.05447 14.9479C4.05447 14.6827 4.15983 14.4283 4.34736 14.2408L12.5399 6.04823H6.46868C6.20352 6.04819 5.94923 5.94283 5.76173 5.75533C5.57423 5.56783 5.46887 5.31354 5.46883 5.04838Z" fill="#F3E3DD"/>
</svg>
