<svg width="24" height="24" viewBox="0 0 24 24" fill="none" xmlns="http://www.w3.org/2000/svg">
<path d="M12 11.1878C10.9128 9.07465 7.9536 5.13505 5.202 3.19345C2.5656 1.33345 1.5612 1.65385 0.9024 1.95385C0.1392 2.29585 0 3.46825 0 4.15585C0 4.84585 0.378 9.80665 0.624 10.6359C1.44 13.3719 4.3368 14.2958 7.008 13.9994C3.096 14.579 -0.3804 16.0035 4.176 21.0771C9.1896 26.267 11.0472 19.9646 12 16.769C12.9528 19.9646 14.0496 26.0403 19.7328 21.0771C24 16.7691 20.9052 14.579 16.9932 13.9994C19.6632 14.2958 22.5612 13.3719 23.376 10.6359C23.622 9.80785 24 4.84585 24 4.15705C24 3.46705 23.8608 2.29705 23.0976 1.95145C22.4388 1.65385 21.4344 1.33105 18.798 3.19105C16.0464 5.13625 13.086 9.07585 12 11.1878Z" fill="white"/>
</svg>
