<svg width="24" height="24" viewBox="0 0 24 24" fill="none" xmlns="http://www.w3.org/2000/svg">
<path d="M15.2197 14.4697C15.5126 14.1768 15.9874 14.1768 16.2803 14.4697C16.5732 14.7626 16.5732 15.2374 16.2803 15.5303L12.5303 19.2803C12.2374 19.5732 11.7626 19.5732 11.4697 19.2803L7.71973 15.5303C7.42684 15.2374 7.42684 14.7626 7.71973 14.4697C8.01262 14.1768 8.48738 14.1768 8.78028 14.4697L12 17.6895L15.2197 14.4697ZM11.5264 4.66797C11.821 4.42766 12.2557 4.44512 12.5303 4.71973L16.2803 8.46973C16.5732 8.76262 16.5732 9.23738 16.2803 9.53027C15.9874 9.82317 15.5126 9.82317 15.2197 9.53027L12 6.31055L8.78028 9.53027C8.48738 9.82317 8.01262 9.82317 7.71973 9.53027C7.42684 9.23738 7.42684 8.76262 7.71973 8.46973L11.4697 4.71973L11.5264 4.66797Z" fill="#A2C9FF"/>
</svg>
