<svg width="24" height="24" viewBox="0 0 24 24" fill="none" xmlns="http://www.w3.org/2000/svg">
<path d="M12.463 11.25V3.07486C12.4629 2.85263 12.3747 2.63949 12.2175 2.48234C12.0603 2.32521 11.8472 2.23687 11.625 2.23687C11.4027 2.23687 11.1897 2.32521 11.0325 2.48234C10.8753 2.63949 10.787 2.85263 10.787 3.07486V4.57486H10.7866L10.8618 10.4906C10.867 10.8974 10.5413 11.2316 10.1345 11.2369C9.72758 11.242 9.39337 10.9163 9.38815 10.5095L9.31332 4.58432C9.31328 4.58122 9.31332 4.57796 9.31332 4.57486C9.3133 4.46485 9.29127 4.35578 9.24917 4.25414C9.20707 4.15255 9.14558 4.06011 9.06784 3.98234C8.99001 3.90452 8.89733 3.84272 8.79564 3.8006C8.69398 3.75851 8.58494 3.73687 8.47491 3.73687C8.36487 3.73688 8.25585 3.75849 8.15419 3.8006C8.05253 3.84271 7.96021 3.90454 7.8824 3.98234C7.8046 4.06014 7.74277 4.1525 7.70065 4.25414C7.65855 4.35578 7.63694 4.46485 7.63692 4.57486V12C7.63692 12.4069 7.30699 12.7368 6.90008 12.7369C6.49313 12.7369 6.16324 12.407 6.16324 12V7.57486L6.15912 7.49221C6.14008 7.30035 6.05528 7.11989 5.91776 6.98234C5.76057 6.82516 5.54712 6.73687 5.32483 6.73687C5.1026 6.73691 4.88946 6.8252 4.73231 6.98234C4.57517 7.13949 4.48688 7.35263 4.48684 7.57486V15.75C4.48684 17.3448 5.12025 18.8744 6.24794 20.0021C7.37562 21.1298 8.90521 21.7632 10.5 21.7632H12.5181C13.7149 21.763 14.8626 21.2872 15.7089 20.4408L17.4408 18.7089H17.4412C18.2875 17.8627 18.763 16.7149 18.7632 15.5181V15.5169L18.766 13.493V13.4902C18.7681 13.1191 18.9171 12.7638 19.1801 12.5021C19.258 12.4242 19.3197 12.3316 19.3618 12.2299C19.4039 12.1282 19.4256 12.0192 19.4256 11.9092C19.4256 11.799 19.404 11.6898 19.3618 11.588C19.3197 11.4864 19.2579 11.3941 19.1801 11.3162C19.1022 11.2384 19.0096 11.1762 18.9079 11.1341C18.8062 11.092 18.6972 11.0704 18.5872 11.0703C18.4771 11.0703 18.3678 11.0919 18.266 11.1341C18.1897 11.1657 18.1187 11.2085 18.0551 11.2607L17.9938 11.3162C17.418 11.8913 17.0927 12.671 17.0896 13.4848C17.0896 13.5045 17.0883 13.5239 17.0868 13.5432V14.9581C17.0875 14.972 17.0888 14.9859 17.0888 15C17.0888 15.407 16.7589 15.7369 16.352 15.7369H16.3495C15.8558 15.7366 15.3669 15.834 14.9108 16.0231C14.4547 16.2121 14.0404 16.4891 13.6916 16.8384C13.4041 17.1264 12.9373 17.1272 12.6493 16.8397C12.3613 16.5522 12.361 16.0853 12.6484 15.7973C13.1342 15.3107 13.7114 14.9249 14.3466 14.6616C14.7534 14.493 15.179 14.377 15.6131 14.3154V4.57486C15.613 4.35263 15.5247 4.13949 15.3676 3.98234C15.2104 3.8252 14.9973 3.73689 14.7751 3.73687C14.5528 3.73687 14.3393 3.82516 14.1821 3.98234C14.0251 4.13948 13.9367 4.35267 13.9367 4.57486V11.25C13.9367 11.657 13.6068 11.9869 13.1998 11.9869C12.793 11.9868 12.463 11.6569 12.463 11.25ZM17.0868 10.1505C17.2707 9.99356 17.4782 9.86548 17.7023 9.77264C17.9828 9.65649 18.2836 9.59665 18.5872 9.59665C18.8908 9.59668 19.1916 9.65646 19.472 9.77264C19.7525 9.88883 20.0074 10.0592 20.222 10.2739C20.4368 10.4886 20.6071 10.7437 20.7233 11.0243C20.8394 11.3048 20.8993 11.6055 20.8993 11.9092C20.8992 12.2128 20.8395 12.5135 20.7233 12.794C20.6103 13.0667 20.4456 13.3146 20.2393 13.5255L20.2368 15.5189C20.2364 17.1064 19.6057 18.6288 18.4831 19.7513L16.7508 21.4828C15.6282 22.6055 14.1058 23.2367 12.5181 23.2369H10.5C8.51436 23.2369 6.61005 22.4481 5.206 21.044C3.80194 19.64 3.01315 17.7357 3.01315 15.75V7.57486C3.0132 6.96178 3.25686 6.37392 3.69037 5.9404C4.12389 5.50689 4.71175 5.26323 5.32483 5.26318C5.61446 5.26318 5.89845 5.31803 6.16324 5.42108V4.57486C6.16326 4.27134 6.22307 3.97083 6.33922 3.6904C6.4554 3.40992 6.62578 3.15508 6.84046 2.9404C7.05512 2.72575 7.30999 2.55534 7.59046 2.43917C7.87088 2.32304 8.1714 2.26319 8.47491 2.26318C8.77851 2.26318 9.0793 2.32299 9.35978 2.43917C9.37266 2.4445 9.38526 2.45047 9.39802 2.45603C9.50382 2.07545 9.70591 1.72466 9.99013 1.4404C10.4237 1.00685 11.0119 0.763184 11.625 0.763184C12.2381 0.763184 12.8263 1.00685 13.2599 1.4404C13.544 1.72463 13.7458 2.07549 13.8516 2.45603C14.1402 2.33026 14.4542 2.26318 14.7751 2.26318C15.3882 2.26321 15.976 2.50689 16.4095 2.9404C16.8431 3.37392 17.0867 3.96178 17.0868 4.57486V10.1505Z" fill="#989796"/>
</svg>
