<svg width="24" height="24" viewBox="0 0 24 24" fill="none" xmlns="http://www.w3.org/2000/svg">
<path d="M12 4.755C9.58926 4.76038 7.22204 5.39752 5.13429 6.60293C3.04654 7.80833 1.3112 9.53989 0.10125 11.625V12.375C1.30725 14.4635 3.04173 16.1979 5.13038 17.4037C7.21903 18.6094 9.58828 19.2442 12 19.2442C14.4117 19.2442 16.781 18.6094 18.8696 17.4037C20.9583 16.1979 22.6928 14.4635 23.8988 12.375V11.625C22.6888 9.53989 20.9535 7.80833 18.8657 6.60293C16.778 5.39752 14.4107 4.76038 12 4.755ZM12 17.745C9.92633 17.74 7.88759 17.2107 6.07342 16.2063C4.25925 15.2018 2.72857 13.7549 1.62375 12C2.725 10.2419 4.25493 8.79239 6.06992 7.78761C7.88491 6.78283 9.92545 6.2557 12 6.2557C14.0746 6.2557 16.1151 6.78283 17.9301 7.78761C19.7451 8.79239 21.275 10.2419 22.3763 12C21.2714 13.7549 19.7408 15.2018 17.9266 16.2063C16.1124 17.2107 14.0737 17.74 12 17.745Z" fill="#989796"/>
<path d="M15.7123 15.7124C16.1998 15.2249 16.5865 14.6461 16.8504 14.0091C17.1142 13.3722 17.25 12.6895 17.25 12.0001C17.25 11.3106 17.1142 10.6279 16.8504 9.99097C16.5865 9.35401 16.1998 8.77526 15.7123 8.28775C15.2248 7.80024 14.646 7.41353 14.0091 7.14969C13.3721 6.88586 12.6894 6.75006 12 6.75006C11.3106 6.75006 10.6279 6.88586 9.99091 7.14969C9.35395 7.41353 8.7752 7.80024 8.28769 8.28775L9.34687 9.34694C9.69529 8.99852 10.1089 8.72215 10.5641 8.53359C11.0194 8.34503 11.5073 8.24797 12 8.24797C12.4927 8.24797 12.9806 8.34503 13.4359 8.53359C13.8911 8.72215 14.3047 8.99852 14.6531 9.34694C15.0015 9.69535 15.2779 10.109 15.4665 10.5642C15.655 11.0194 15.7521 11.5073 15.7521 12.0001C15.7521 12.4928 15.655 12.9807 15.4665 13.4359C15.2779 13.8911 15.0015 14.3048 14.6531 14.6532L15.7123 15.7124Z" fill="#989796"/>
<path d="M22.0608 21.0644L21.0001 22.1251L2.625 3.74999L3.68566 2.68933L22.0608 21.0644Z" fill="#989796"/>
</svg>
