<svg width="24" height="24" viewBox="0 0 24 24" fill="none" xmlns="http://www.w3.org/2000/svg">
<path d="M19.5 3.75H4.5V14.25C4.5 14.6478 4.65815 15.0292 4.93945 15.3105C5.22076 15.5919 5.60218 15.75 6 15.75H18C18.3978 15.75 18.7792 15.5919 19.0605 15.3105C19.3419 15.0292 19.5 14.6478 19.5 14.25V3.75ZM8.29102 18.75H15.709L15.209 17.25H8.79102L8.29102 18.75ZM16.124 6.95605C16.4825 6.74847 16.9418 6.87105 17.1494 7.22949C17.3566 7.58783 17.2342 8.04637 16.876 8.25391C15.4431 9.08371 14.2101 10.2185 13.2637 11.5771C13.1368 11.7592 12.9349 11.8759 12.7139 11.8955C12.4929 11.915 12.2741 11.8356 12.1172 11.6787L10.499 10.0605L8.03027 12.5303C7.73738 12.8232 7.26262 12.8232 6.96973 12.5303C6.67683 12.2374 6.67683 11.7626 6.96973 11.4697L9.96973 8.46973L10.0264 8.41797C10.3209 8.17766 10.7557 8.19512 11.0303 8.46973L12.5674 10.0059C13.5538 8.78125 14.7589 7.74666 16.124 6.95605ZM21 14.25C21 15.0456 20.6837 15.8085 20.1211 16.3711C19.5585 16.9337 18.7956 17.25 18 17.25H16.791L17.9619 20.7627C18.0929 21.1557 17.8803 21.5809 17.4873 21.7119C17.0943 21.8429 16.6691 21.6303 16.5381 21.2373L16.209 20.25H7.79102L7.46191 21.2373C7.33093 21.6303 6.90565 21.8429 6.5127 21.7119C6.11974 21.5809 5.9071 21.1557 6.03809 20.7627L7.20898 17.25H6C5.20435 17.25 4.44152 16.9337 3.87891 16.3711C3.3163 15.8085 3 15.0456 3 14.25V3.75H2.25C1.83579 3.75 1.5 3.41421 1.5 3C1.5 2.58579 1.83579 2.25 2.25 2.25H21.75C22.1642 2.25 22.5 2.58579 22.5 3C22.5 3.41421 22.1642 3.75 21.75 3.75H21V14.25Z" fill="#FBAD41"/>
</svg>
