<svg width="24" height="24" viewBox="0 0 24 24" fill="none" xmlns="http://www.w3.org/2000/svg">
<path d="M22.26 20.0662L14.625 13.125C15.6598 11.7061 16.1116 9.9446 15.8874 8.20281C15.6632 6.46103 14.7802 4.87134 13.4199 3.76066C12.0596 2.64998 10.3254 2.10274 8.57395 2.23149C6.82252 2.36023 5.18699 3.15517 4.00371 4.45282C2.82042 5.75048 2.17933 7.4522 2.21227 9.20805C2.24521 10.9639 2.94967 12.6404 4.1808 13.8927C5.41192 15.1451 7.07611 15.8781 8.83113 15.9411C10.5862 16.0041 12.2986 15.3922 13.6163 14.2312L21.2475 21.1725L22.26 20.0662ZM9.09755 14.4412C8.04055 14.4412 7.00727 14.128 6.1282 13.5411C5.24914 12.9541 4.56373 12.1199 4.15855 11.1436C3.75338 10.1673 3.64661 9.09291 3.85173 8.05601C4.05685 7.01911 4.56466 6.06625 5.31102 5.31779C6.05739 4.56934 7.00882 4.05886 8.04514 3.85083C9.08146 3.64281 10.1562 3.74657 11.1336 4.14901C12.111 4.55145 12.9472 5.23452 13.5365 6.11193C14.1259 6.98935 14.4421 8.02176 14.445 9.07875C14.4431 10.4964 13.879 11.8554 12.8766 12.8578C11.8742 13.8602 10.5152 14.4243 9.09755 14.4262V14.4412Z" fill="white"/>
</svg>
