<svg width="24" height="24" viewBox="0 0 24 24" fill="none" xmlns="http://www.w3.org/2000/svg">
<path d="M19.2787 5.16756L18.7687 5.09631C16.5966 4.77541 14.5803 3.77972 13.005 2.25006L12.5587 1.74756H11.4337L10.9987 2.25006C9.42749 3.77692 7.41684 4.77241 5.24999 5.09631L4.73999 5.16756L4.09499 5.91756V11.2126C4.07624 18.5438 11.1 22.1251 11.3962 22.2826L11.6625 22.4176H12.3375L12.6037 22.2826C12.9 22.1363 19.9237 18.5326 19.9237 11.2126V5.91006L19.2787 5.16756ZM18.4237 11.2126C18.4237 17.3438 12.75 20.5238 12 20.9063C11.2725 20.5313 5.57624 17.3476 5.57624 11.2126V6.56256C7.99123 6.17621 10.2316 5.06452 12 3.37506C13.7678 5.0653 16.0085 6.17712 18.4237 6.56256V11.2126Z" fill="#989796"/>
<path d="M8.79374 11.3663L7.70624 12.4051L10.845 15.6788L16.2825 10.1776L15.2175 9.12381L10.86 13.5301L8.79374 11.3663Z" fill="#989796"/>
</svg>
