<svg width="24" height="24" viewBox="0 0 24 24" fill="none" xmlns="http://www.w3.org/2000/svg">
<path d="M11.5995 20.1154C11.732 20.1218 11.8657 20.1249 12.0001 20.1249V21.9999L11.7419 21.9966C11.6641 21.9946 11.5864 21.9915 11.509 21.9878L11.5995 20.1154ZM12.4454 21.0518L12.4905 21.9878C12.328 21.9956 12.1645 21.9999 12.0001 21.9999V20.1249C12.1345 20.1249 12.2679 20.1218 12.4004 20.1154L12.4454 21.0518ZM10.0237 19.8835C10.2794 19.9474 10.5402 19.9991 10.8052 20.0381L10.5602 21.7025L10.532 21.8922C10.2056 21.8442 9.8845 21.7805 9.56921 21.7018L10.0237 19.8835ZM13.9766 19.8835L14.4303 21.7018C14.115 21.7805 13.7939 21.8442 13.4675 21.8922L13.3313 20.9653L13.1951 20.0381C13.4601 19.9991 13.7209 19.9474 13.9766 19.8835ZM16.2291 20.9423L16.276 21.0415C15.9815 21.181 15.6791 21.3065 15.3696 21.4172L15.054 20.5354L14.7383 19.6525C14.9893 19.5626 15.2346 19.4607 15.4736 19.3474L16.2291 20.9423ZM8.52625 19.3478C8.76531 19.461 9.01093 19.5626 9.26196 19.6525L8.94556 20.535L8.94592 20.5354L8.62988 21.4169C8.32046 21.3061 8.01798 21.181 7.72351 21.0415L8.52625 19.3478ZM7.16101 18.5275C7.37427 18.6859 7.59547 18.8341 7.82385 18.9713L6.85815 20.5779C6.57701 20.409 6.30489 20.2267 6.0426 20.0319L7.16101 18.5275ZM17.943 20.0132L17.9569 20.0322C17.6947 20.227 17.4225 20.409 17.1414 20.5779L16.6591 19.7751L16.1764 18.9713C16.4048 18.8341 16.626 18.6859 16.8392 18.5275L17.943 20.0132ZM5.97925 17.4559C6.15815 17.6532 6.34668 17.8417 6.54395 18.0206L5.28418 19.4097C5.04172 19.1898 4.81046 18.9578 4.59058 18.7153L5.97925 17.4559ZM18.0206 17.4559L19.4093 18.7153C19.1894 18.9578 18.9578 19.1894 18.7153 19.4093L18.0858 18.7153L17.4559 18.0206C17.6532 17.8417 17.8417 17.6532 18.0206 17.4559ZM5.02856 16.1764C5.16575 16.4048 5.31399 16.626 5.47241 16.8392L3.96729 17.9569C3.77249 17.6947 3.59046 17.4224 3.42163 17.1414L5.02856 16.1764ZM18.9713 16.1764L20.5779 17.1414C20.409 17.4225 20.227 17.6947 20.0322 17.9569L18.5275 16.8392C18.6859 16.626 18.8341 16.4048 18.9713 16.1764ZM4.34741 14.7383C4.43724 14.9893 4.53921 15.2346 4.65247 15.4736L2.95837 16.276C2.81883 15.9815 2.69303 15.6791 2.58228 15.3696L4.34741 14.7383ZM21.4172 15.3696C21.3065 15.6791 21.181 15.9815 21.0415 16.276L19.3478 15.4736C19.461 15.2346 19.5627 14.9892 19.6525 14.7383L21.4172 15.3696ZM3.96216 13.1951C4.00114 13.4601 4.05285 13.7209 4.1167 13.9766L2.2981 14.4303C2.21937 14.115 2.1553 13.7939 2.1073 13.4675L3.96216 13.1951ZM20.965 13.3313L21.8922 13.4675C21.8442 13.7939 21.7805 14.115 21.7018 14.4303L19.8835 13.9766C19.9474 13.7209 19.9991 13.4601 20.0381 13.1951L20.965 13.3313ZM2 12.0001C2 11.8355 2.00422 11.6717 2.01208 11.509L3.88452 11.5995C3.87812 11.732 3.875 11.8657 3.875 12.0001C3.875 12.1345 3.87812 12.2679 3.88452 12.4004L2.94775 12.4454L2.94812 12.4458L2.01208 12.4905C2.00835 12.4132 2.00526 12.3357 2.0033 12.2579L2 12.0001ZM21.9966 12.2579C21.9946 12.3357 21.9915 12.4132 21.9878 12.4905L20.1154 12.4004C20.1218 12.2679 20.1249 12.1345 20.1249 12.0001C20.1249 11.8657 20.1218 11.732 20.1154 11.5995L21.9878 11.509C21.9957 11.6717 21.9999 11.8355 21.9999 12.0001L21.9966 12.2579ZM4.1167 10.0237C4.05285 10.2794 4.00114 10.5402 3.96216 10.8052L2.1073 10.532C2.15531 10.2056 2.21935 9.88451 2.2981 9.56921L4.1167 10.0237ZM21.7018 9.56921C21.7805 9.8845 21.8442 10.2056 21.8922 10.532L20.0381 10.8052C19.9991 10.5402 19.9474 10.2794 19.8835 10.0237L21.7018 9.56921ZM4.65247 8.52625C4.53919 8.76532 4.43725 9.01092 4.34741 9.26196L2.58264 8.62988C2.6934 8.32043 2.81884 8.01801 2.95837 7.72351L4.65247 8.52625ZM21.0415 7.72351C21.181 8.01798 21.3061 8.32046 21.4169 8.62988L20.5354 8.94592L20.535 8.94556L19.6525 9.26196C19.5626 9.01092 19.4607 8.76532 19.3474 8.52625L21.0415 7.72351ZM5.47241 7.16101C5.31401 7.37425 5.16573 7.59549 5.02856 7.82385L3.42163 6.85815C3.59051 6.57702 3.77281 6.30488 3.96765 6.0426L5.47241 7.16101ZM20.0319 6.0426C20.2267 6.30489 20.409 6.57701 20.5779 6.85815L19.7751 7.34119L19.7748 7.34082L18.9713 7.82385C18.8341 7.59547 18.6859 7.37427 18.5275 7.16101L20.0319 6.0426ZM5.28455 4.59058L6.54395 5.97925C6.34666 6.15817 6.15817 6.34666 5.97925 6.54395L4.59021 5.28455C4.81014 5.04202 5.04166 4.81015 5.28418 4.59021L5.28455 4.59058ZM18.7153 4.59021C18.9579 4.81014 19.1897 5.04166 19.4097 5.28418L18.0206 6.54395C17.8417 6.34668 17.6532 6.15815 17.4559 5.97925L18.7153 4.59021ZM7.82385 5.02856C7.59549 5.16573 7.37425 5.31401 7.16101 5.47241L6.0426 3.96765C6.30488 3.77281 6.57702 3.59051 6.85815 3.42163L7.82385 5.02856ZM17.1414 3.42163C17.4224 3.59046 17.6947 3.77249 17.9569 3.96729L16.8392 5.47241C16.626 5.31399 16.4048 5.16575 16.1764 5.02856L17.1414 3.42163ZM9.26196 4.34741C9.01092 4.43725 8.76532 4.53919 8.52625 4.65247L7.72351 2.95837C8.01801 2.81884 8.32043 2.6934 8.62988 2.58264L9.26196 4.34741ZM15.3696 2.58228C15.6791 2.69303 15.9815 2.81883 16.276 2.95837L15.4736 4.65247C15.2346 4.53921 14.9893 4.43724 14.7383 4.34741L15.3696 2.58228ZM10.8052 3.96216C10.5402 4.00114 10.2794 4.05285 10.0237 4.1167L9.56921 2.2981C9.88451 2.21935 10.2056 2.15531 10.532 2.1073L10.8052 3.96216ZM13.4675 2.1073C13.7939 2.1553 14.115 2.21937 14.4303 2.2981L13.9766 4.1167C13.7209 4.05285 13.4601 4.00114 13.1951 3.96216L13.4675 2.1073ZM12.2579 2.0033C12.3357 2.00526 12.4132 2.00835 12.4905 2.01208L12.4004 3.88452C12.2679 3.87812 12.1345 3.875 12.0001 3.875C11.8657 3.875 11.732 3.87812 11.5995 3.88452L11.509 2.01208C11.6717 2.00422 11.8355 2 12.0001 2L12.2579 2.0033Z" fill="#989796"/>
</svg>
