<svg width="197" height="33" viewBox="0 0 197 33" fill="none" xmlns="http://www.w3.org/2000/svg">
<path d="M49.0958 30.5134C49.535 29.0088 49.3678 27.6294 48.6356 26.6052C47.9663 25.6647 46.8366 25.1213 45.477 25.0587L19.7263 24.7243C19.5589 24.7243 19.4124 24.6407 19.3287 24.5153C19.245 24.3899 19.2242 24.2226 19.2659 24.0554C19.3496 23.8046 19.6007 23.6166 19.8726 23.5957L45.8534 23.2613C48.9285 23.115 52.2755 20.628 53.4468 17.5766L54.932 13.7102C54.9948 13.543 55.0157 13.3758 54.9739 13.2086C53.3005 5.64289 46.5437 0 38.4692 0C31.0221 0 24.7047 4.80692 22.4456 11.4739C20.9813 10.3871 19.1196 9.80193 17.1114 9.99002C13.5343 10.3453 10.6685 13.2086 10.3128 16.7825C10.2292 17.702 10.2919 18.6006 10.5011 19.4367C4.66483 19.6039 0 24.369 0 30.2418C0 30.7642 0.0418371 31.2868 0.104593 31.8093C0.14643 32.06 0.355613 32.2481 0.606637 32.2481H48.1335C48.4056 32.2481 48.6565 32.06 48.7402 31.7884L49.0958 30.5134Z" fill="#226FDB"/>
<path d="M57.4142 14.0463C57.184 14.0463 56.933 14.0463 56.7028 14.0672C56.5356 14.0672 56.3891 14.1926 56.3264 14.3598L55.3222 17.85C54.883 19.3548 55.0504 20.7342 55.7824 21.7582C56.4519 22.6988 57.5816 23.2421 58.9412 23.3048L64.4219 23.6392C64.5892 23.6392 64.7356 23.7228 64.8193 23.8482C64.9031 23.9737 64.924 24.1618 64.8821 24.3079C64.7984 24.5588 64.5473 24.7469 64.2754 24.7678L58.5647 25.1022C55.4687 25.2485 52.1427 27.7356 50.9712 30.7869L50.5529 31.8528C50.4692 32.0618 50.6156 32.2708 50.8456 32.2708H70.4673C70.6975 32.2708 70.9066 32.1245 70.9693 31.8946C71.304 30.6824 71.4923 29.4076 71.4923 28.0909C71.4923 20.3579 65.1749 14.0463 57.4142 14.0463Z" fill="#226FDB"/>
<path d="M26.7742 27.9897L26.151 28.575C26.7531 29.2131 27.4018 29.8059 28.0915 30.3485L28.6242 29.6746C27.9668 29.1618 27.3496 28.5997 26.7777 27.9932L26.7742 27.9897Z" fill="#F4F4F4"/>
<path d="M23.9315 25.6736C24.3883 26.4194 24.8993 27.1306 25.4602 27.8018L26.1188 27.252C25.5826 26.6155 25.096 25.9391 24.6631 25.2285L23.9315 25.6736Z" fill="#F4F4F4"/>
<path d="M12.801 22.9142C13.4848 23.5078 14.2655 23.9798 15.1091 24.3099L15.4216 23.5135C14.6685 23.2205 13.9713 22.8006 13.3603 22.2721L12.801 22.9142Z" fill="#F4F4F4"/>
<path d="M10.6741 20.0553C11.0403 20.885 11.5466 21.6457 12.1708 22.304L12.794 21.7169C12.2378 21.1296 11.7867 20.4512 11.4606 19.7111L10.6741 20.0553Z" fill="#F4F4F4"/>
<path d="M17.3516 21.8978L17.8985 21.24C17.2137 20.6698 16.4611 20.186 15.6578 19.7999L15.2885 20.5678C16.0276 20.926 16.7204 21.3726 17.3516 21.8978Z" fill="#F4F4F4"/>
<path d="M20.0946 25.7214C20.4483 26.4629 20.7088 27.2449 20.8705 28.0501L21.7085 27.885C21.5342 27.0108 21.254 26.161 20.874 25.3544L20.0946 25.7214Z" fill="#F4F4F4"/>
<path d="M12.0038 19.6278C12.8198 19.7161 13.6218 19.9044 14.3918 20.1882L14.6901 19.3778C13.8534 19.0708 12.9823 18.8672 12.0962 18.7712L12.0038 19.6278Z" fill="#F4F4F4"/>
<path d="M21.7458 31.5155C21.8188 31.0043 21.8557 30.4888 21.8558 29.9726C21.8603 29.7181 21.8515 29.4634 21.8292 29.2099C21.8292 29.0912 21.8098 28.9705 21.7991 28.8552L20.9468 28.9422C20.9468 29.0504 20.9681 29.1603 20.9753 29.2703C20.993 29.5025 21 29.7402 21 29.9796C21.0002 30.4544 20.9664 30.9286 20.8989 31.3985L21.7458 31.5155Z" fill="#F4F4F4"/>
<path d="M38.9361 31.6326H38.0803V29.0628H38.9361V31.6326ZM38.9361 28.2292H38.0803V25.6631H38.9361V28.2292Z" fill="#F4F4F4"/>
<path d="M22.392 18.6807L21.5433 18.7837C21.6496 19.6544 21.8223 20.5159 22.0601 21.3605L22.8839 21.1264C22.658 20.3248 22.4936 19.5073 22.392 18.6807Z" fill="#F4F4F4"/>
<path d="M22.2695 16.6573V16.3771C22.2695 15.9728 22.2979 15.5862 22.3316 15.196L21.4795 15.1215C21.4438 15.5259 21.4209 15.948 21.4156 16.3629V16.6573C21.4156 17.0121 21.4279 17.3863 21.4492 17.748L22.305 17.6948C22.2802 17.3543 22.2695 17.005 22.2695 16.6573Z" fill="#F4F4F4"/>
<path d="M23.0011 11.7855L22.1915 11.5355C21.9327 12.3726 21.738 13.2281 21.6091 14.0946L22.456 14.2205C22.5769 13.3965 22.7592 12.5825 23.0011 11.7855Z" fill="#F4F4F4"/>
<path d="M23.4894 21.8411L24.1304 22.4103C24.7317 21.7334 25.2121 20.9584 25.5508 20.1191L24.759 19.7999C24.458 20.5482 24.0298 21.2388 23.4931 21.8411H23.4894Z" fill="#F4F4F4"/>
<path d="M25.1318 17.161C25.1333 17.4176 25.1196 17.6739 25.0909 17.9289C25.0558 18.2655 24.9965 18.5993 24.9133 18.9274L25.7443 19.1314C25.8382 18.7642 25.9059 18.3908 25.9467 18.014C25.9772 17.7282 25.9926 17.4411 25.9929 17.1539C25.9929 16.9181 25.9822 16.6786 25.961 16.4445L25.1068 16.519C25.1194 16.7442 25.1318 16.957 25.1318 17.161Z" fill="#F4F4F4"/>
<path d="M24.8636 15.7156L25.6963 15.5258C25.4931 14.6447 25.14 13.8048 24.6523 13.043L23.9315 13.5023C24.3669 14.1832 24.6821 14.9336 24.8636 15.7209V15.7156Z" fill="#F4F4F4"/>
<path d="M23.7753 23.5454C23.5517 23.0595 23.3474 22.5647 23.1681 22.061L22.3586 22.3413C22.4993 22.7468 22.6574 23.1518 22.8325 23.5561L23.7753 23.5454Z" fill="#F4F4F4"/>
<path d="M23.0314 11.2092L22.6763 12.0179C22.9579 12.2596 23.2204 12.5229 23.4611 12.8053L24.1145 12.2538C23.7904 11.8723 23.4308 11.5225 23.0402 11.2092H23.0314Z" fill="#F4F4F4"/>
<path d="M15.9774 24.6094C16.8653 24.7937 17.7785 24.8225 18.6761 24.6945L18.5554 23.8469C17.7552 23.9606 16.9413 23.9354 16.1497 23.7725L15.9774 24.6094Z" fill="#F4F4F4"/>
<path d="M29.3467 30.3875L28.8425 31.0774C29.4047 31.4873 29.9904 31.864 30.5966 32.2053H31.2039L31.4631 31.707C30.7253 31.3212 30.0179 30.8801 29.3467 30.3875Z" fill="#F4F4F4"/>
<path d="M18.0691 22.5558C18.5395 23.0252 18.9617 23.5402 19.3297 24.0934V24.0598C19.3749 23.925 19.4604 23.8074 19.5746 23.7228C19.6884 23.6392 19.8257 23.5932 19.967 23.5916H20.0237C19.6277 23.0023 19.1752 22.453 18.6726 21.951L18.0691 22.5558Z" fill="#F4F4F4"/>
<path d="M38.9361 2.71789V0.00979791H38.0803V2.71964L38.9361 2.71789Z" fill="#F4F4F4"/>
<path d="M55.0678 13.3906V13.2345C55.0634 13.1944 55.0539 13.1551 55.0393 13.1174H53.0065V13.9687H54.885L54.9861 13.7009C55.0464 13.6073 55.0728 13.4959 55.0608 13.3852L55.0678 13.3906Z" fill="#F4F4F4"/>
<path d="M38.9342 16.1873H38.0803V18.8829H38.9342V16.1873Z" fill="#F4F4F4"/>
<path d="M38.9342 20.2343H38.0803V22.9301H38.9342V20.2343Z" fill="#F4F4F4"/>
<path d="M38.9342 8.09324H38.0803V10.7889H38.9342V8.09324Z" fill="#F4F4F4"/>
<path d="M38.9342 4.04792H38.0803V6.74182H38.9342V4.04792Z" fill="#F4F4F4"/>
<path d="M51.7403 13.1174H49.1624V13.974H51.7403V13.1174Z" fill="#F4F4F4"/>
<path d="M45.3134 13.1174V13.974H47.8931L47.8789 13.1174H45.3134Z" fill="#F4F4F4"/>
<path d="M41.4587 13.1174V13.974H44.0438L44.0279 13.1174H41.4587Z" fill="#F4F4F4"/>
<path d="M38.9361 13.1175V12.1421H38.0803V14.836H38.9361V13.974H40.1948V13.1175H38.9361Z" fill="#F4F4F4"/>
<path d="M89.5527 4.72591H92.0129V5.94227H88.131V0.89898H89.5527V4.72591ZM98.9903 3.39999V3.41375C98.986 3.76906 98.9107 4.11992 98.7688 4.44569C98.6269 4.77146 98.4213 5.06556 98.164 5.3107C97.9068 5.55583 97.6031 5.74705 97.2709 5.87311C96.9387 5.99916 96.5846 6.0575 96.2295 6.0447C94.6575 6.0447 93.4825 4.88286 93.4825 3.43413V3.41375C93.4876 3.06375 93.5616 2.71819 93.7003 2.3968C93.8389 2.07541 94.0396 1.78449 94.2907 1.54065C94.5418 1.29681 94.8385 1.10483 95.1638 0.975666C95.4892 0.846507 95.8367 0.7827 96.1867 0.787891L96.2433 0.789419C97.8219 0.789419 98.9903 1.95126 98.9903 3.39999ZM97.5483 3.41375C97.5483 2.68913 97.0219 2.06082 96.2362 2.06082C95.4642 2.06082 94.9378 2.67588 94.9378 3.40712V3.42751C94.9378 4.15213 95.4708 4.78044 96.2433 4.78044C97.029 4.78044 97.5488 4.16538 97.5488 3.43413V3.41375H97.5483ZM104.041 3.74192C104.041 4.43902 103.672 4.77381 103.105 4.77381C102.537 4.77381 102.161 4.43189 102.161 3.70064V0.898471H100.726V3.72765H100.719C100.719 5.31295 101.635 6.03094 103.091 6.03094C104.547 6.03094 105.483 5.32008 105.483 3.70064V0.898471H104.041V3.74192ZM112.508 3.38623V3.40661C112.508 4.86248 111.428 5.94227 109.589 5.94227H107.648V0.89898H109.616C111.442 0.89898 112.508 1.93087 112.508 3.38623ZM111.059 3.40661C111.059 2.59995 110.492 2.12859 109.644 2.12859H109.07V4.70502H109.644C110.492 4.70502 111.059 4.24028 111.059 3.427V3.40661ZM114.565 5.93565H115.979V4.13837H118.399V2.97653H115.979V2.12248H118.651V0.89898H114.565V5.93565ZM122.041 0.89898H120.626V5.94227H124.521V4.72591H122.041V0.89898ZM129.572 0.864328L131.759 5.94227H130.235L129.859 5.04695H127.891L127.528 5.94227H126.046L128.212 0.864328H129.572ZM129.456 3.95339L128.895 2.52505L128.321 3.96001H129.455L129.456 3.95339ZM137.055 4.19289L138.279 5.95603H136.638L135.613 4.42526H134.991V5.95603H133.57V0.89898H135.982C136.768 0.89898 137.301 1.0972 137.649 1.44576C137.95 1.73265 138.107 2.12248 138.107 2.62798V2.64174C138.107 3.41375 137.684 3.92638 137.055 4.19289ZM136.679 2.70289C136.679 2.30644 136.392 2.10821 135.914 2.10821H134.984V3.31795H135.928C136.406 3.31795 136.679 3.08558 136.679 2.72327V2.70289ZM141.559 4.75292V3.94626H144.005V2.83894H141.559V2.08732H144.258V0.897961H140.151V5.94125H144.292V4.7519H141.559V4.75292ZM83.8604 2.06031C84.4413 2.06031 84.8856 2.40224 85.0701 2.89398H86.5601C86.4286 2.284 86.0869 1.73966 85.5947 1.35615C85.1025 0.972648 84.4911 0.774385 83.8675 0.796043C83.5123 0.783174 83.1582 0.841484 82.8259 0.967537C82.4936 1.09359 82.1898 1.28484 81.9325 1.53004C81.6752 1.77523 81.4696 2.06942 81.3277 2.39528C81.1857 2.72115 81.1105 3.07211 81.1062 3.42751V3.44126C81.1062 4.89 82.268 6.05183 83.8466 6.05183C84.4558 6.07044 85.0531 5.88088 85.5401 5.51441C86.0271 5.14795 86.3746 4.62646 86.5254 4.03594L85.0354 4.02932C84.8306 4.46654 84.4138 4.78094 83.867 4.78094C83.095 4.78094 82.5686 4.1455 82.5686 3.42802V3.40763C82.5686 2.67537 83.0813 2.06031 83.8604 2.06031Z" fill="#226FDB"/>
<path d="M183.171 31V11.5342H186.231V19.3371H186.342C187.307 17.6552 188.906 16.7453 190.781 16.7453C193.538 16.7453 195.275 18.6753 195.275 21.9013V31H192.132V21.9013C192.132 20.0539 191.194 18.9786 189.65 18.9786C187.61 18.9786 186.314 20.8259 186.314 23.8037V31H183.171Z" fill="#226FDB"/>
<path d="M174.024 31.3307C169.915 31.3307 167.131 28.4081 167.131 24.0241C167.131 19.6402 169.943 16.7451 174.024 16.7451C177.525 16.7451 179.979 18.7854 180.448 22.1217H177.194C176.891 20.1089 175.678 18.9784 173.968 18.9784C171.763 18.9784 170.384 20.9636 170.384 24.0241C170.384 27.1398 171.79 29.0974 173.968 29.0974C175.678 29.0974 176.891 27.9118 177.194 25.8714H180.475C179.979 29.2352 177.525 31.3307 174.024 31.3307Z" fill="#226FDB"/>
<path d="M158.023 30.9999L157.995 17.0761H161.083V20.0263H161.194C162.021 18.0411 163.592 16.9106 165.55 16.9106H166.019V19.8057H165.412C162.545 19.8057 161.139 21.2946 161.139 24.2724V30.9999H158.023Z" fill="#226FDB"/>
<path d="M146.908 31.3307C144.234 31.3307 142.386 29.6764 142.386 27.1949C142.386 24.741 143.765 23.5003 147.184 22.8385L148.893 22.5352C150.631 22.2044 151.43 21.9011 151.43 20.9361C151.43 19.7229 150.3 18.8957 148.756 18.8957C147.129 18.8957 146.136 19.8056 145.998 21.3496H142.772C142.993 18.5373 145.309 16.7451 148.756 16.7451C150.493 16.7451 151.899 17.1863 152.919 18.0134C153.967 18.8406 154.491 20.0262 154.491 21.8184V27.8566C154.491 29.1801 154.628 30.09 154.904 30.9998H151.844C151.596 30.3381 151.485 29.5385 151.485 28.7114H151.375C150.575 30.3105 148.921 31.3307 146.908 31.3307ZM147.901 29.1249C149.914 29.1249 151.43 27.4982 151.43 25.2373V23.39C150.934 23.8587 150.051 24.2447 148.177 24.6859C146.412 25.0994 145.612 25.7887 145.612 27.0295C145.612 28.3254 146.55 29.1249 147.901 29.1249Z" fill="#226FDB"/>
<path d="M133.607 31.3307C129.471 31.3307 126.769 28.3805 126.769 24.0517C126.769 19.6953 129.526 16.7451 133.579 16.7451C137.77 16.7451 140.334 19.6126 140.334 24.3826V24.7686H129.995C130.188 27.5809 131.456 29.1525 133.607 29.1525C135.234 29.1525 136.419 28.2426 136.805 26.6435H140.059C139.342 29.6212 136.805 31.3307 133.607 31.3307ZM130.078 22.618H137.026C136.778 20.2192 135.427 18.9233 133.579 18.9233C131.677 18.9233 130.436 20.2743 130.078 22.618Z" fill="#226FDB"/>
<path d="M118.885 31.3307C115.384 31.3307 113.013 29.511 112.682 26.5056H115.935C116.018 28.1599 117.176 29.1801 118.885 29.1801C120.485 29.1801 121.505 28.4081 121.505 27.1949C121.505 26.2023 120.926 25.7887 119.078 25.3752L117.782 25.0719C114.501 24.355 113.206 23.1694 113.206 21.0188C113.206 18.5097 115.494 16.7451 118.72 16.7451C122.001 16.7451 124.207 18.427 124.565 21.1842H121.312C121.201 19.7229 120.236 18.8957 118.72 18.8957C117.341 18.8957 116.459 19.6126 116.459 20.7155C116.459 21.7081 117.121 22.2044 118.803 22.5628L119.988 22.811C123.38 23.5554 124.758 24.6859 124.758 26.7538C124.758 29.5385 122.415 31.3307 118.885 31.3307Z" fill="#226FDB"/>
<path d="M104.15 31.3307C100.014 31.3307 97.3121 28.3805 97.3121 24.0517C97.3121 19.6953 100.069 16.7451 104.122 16.7451C108.313 16.7451 110.878 19.6126 110.878 24.3826V24.7686H100.538C100.731 27.5809 101.999 29.1525 104.15 29.1525C105.777 29.1525 106.962 28.2426 107.348 26.6435H110.602C109.885 29.6212 107.348 31.3307 104.15 31.3307ZM100.621 22.618H107.569C107.321 20.2192 105.97 18.9233 104.122 18.9233C102.22 18.9233 100.979 20.2743 100.621 22.618Z" fill="#226FDB"/>
<path d="M81.1838 31V11.5342H89.5106C93.0398 11.5342 95.3834 13.5194 95.3834 16.442C95.3834 18.9235 93.7291 20.6881 91.1098 21.1292V21.2395C93.1777 21.3222 94.5011 22.7008 94.5011 24.7963V27.8844C94.5011 29.5111 94.6665 30.0901 95.3283 31H91.9369C91.3579 30.3107 91.22 29.6214 91.22 27.9671V25.2926C91.22 23.4177 90.3102 22.5906 88.3801 22.5906H84.4373V31H81.1838ZM84.4373 19.9712H88.7937C90.7513 19.9712 91.9921 18.8959 91.9921 17.0762C91.9921 15.2564 90.7238 14.2087 88.7937 14.2087H84.4373V19.9712Z" fill="#226FDB"/>
</svg>
