<svg width="197" height="33" viewBox="0 0 197 33" fill="none" xmlns="http://www.w3.org/2000/svg">
<path d="M49.0958 30.5134C49.535 29.0088 49.3678 27.6294 48.6356 26.6052C47.9663 25.6647 46.8366 25.1213 45.477 25.0587L19.7263 24.7243C19.5589 24.7243 19.4124 24.6407 19.3287 24.5153C19.245 24.3899 19.2242 24.2226 19.2659 24.0554C19.3496 23.8046 19.6007 23.6166 19.8726 23.5957L45.8534 23.2613C48.9285 23.115 52.2755 20.628 53.4468 17.5766L54.932 13.7102C54.9948 13.543 55.0157 13.3758 54.9739 13.2086C53.3005 5.64289 46.5437 0 38.4692 0C31.0221 0 24.7047 4.80692 22.4456 11.4739C20.9813 10.3871 19.1196 9.80193 17.1114 9.99002C13.5343 10.3453 10.6685 13.2086 10.3128 16.7825C10.2292 17.702 10.2919 18.6006 10.5011 19.4367C4.66483 19.6039 0 24.369 0 30.2418C0 30.7642 0.0418371 31.2868 0.104593 31.8093C0.14643 32.06 0.355613 32.2481 0.606637 32.2481H48.1335C48.4056 32.2481 48.6565 32.06 48.7402 31.7884L49.0958 30.5134Z" fill="white"/>
<path d="M57.4142 14.0463C57.184 14.0463 56.933 14.0463 56.7028 14.0672C56.5356 14.0672 56.3891 14.1926 56.3264 14.3598L55.3222 17.85C54.883 19.3548 55.0504 20.7342 55.7824 21.7582C56.4519 22.6988 57.5816 23.2421 58.9412 23.3048L64.4219 23.6392C64.5892 23.6392 64.7356 23.7228 64.8193 23.8482C64.9031 23.9737 64.924 24.1618 64.8821 24.3079C64.7984 24.5588 64.5473 24.7469 64.2754 24.7678L58.5647 25.1022C55.4687 25.2485 52.1427 27.7356 50.9712 30.7869L50.5529 31.8528C50.4692 32.0618 50.6156 32.2708 50.8456 32.2708H70.4673C70.6975 32.2708 70.9066 32.1245 70.9693 31.8946C71.304 30.6824 71.4923 29.4076 71.4923 28.0909C71.4923 20.3579 65.1749 14.0463 57.4142 14.0463Z" fill="white"/>
<path d="M26.7742 27.9897L26.151 28.575C26.7531 29.2131 27.4018 29.8059 28.0915 30.3485L28.6242 29.6746C27.9668 29.1618 27.3496 28.5997 26.7777 27.9932L26.7742 27.9897Z" fill="#226FDB"/>
<path d="M23.9315 25.6736C24.3883 26.4194 24.8993 27.1306 25.4602 27.8018L26.1188 27.252C25.5826 26.6155 25.096 25.9391 24.6631 25.2285L23.9315 25.6736Z" fill="#226FDB"/>
<path d="M12.801 22.9142C13.4848 23.5078 14.2655 23.9798 15.1091 24.3099L15.4216 23.5135C14.6685 23.2205 13.9713 22.8006 13.3603 22.2721L12.801 22.9142Z" fill="#226FDB"/>
<path d="M10.6741 20.0553C11.0403 20.885 11.5466 21.6457 12.1708 22.304L12.794 21.7169C12.2378 21.1296 11.7867 20.4512 11.4606 19.7111L10.6741 20.0553Z" fill="#226FDB"/>
<path d="M17.3516 21.8978L17.8985 21.24C17.2137 20.6698 16.4611 20.186 15.6578 19.7999L15.2885 20.5678C16.0276 20.926 16.7204 21.3726 17.3516 21.8978Z" fill="#226FDB"/>
<path d="M20.0946 25.7214C20.4483 26.4629 20.7088 27.2449 20.8705 28.0501L21.7085 27.885C21.5342 27.0108 21.254 26.161 20.874 25.3544L20.0946 25.7214Z" fill="#226FDB"/>
<path d="M12.0038 19.6278C12.8198 19.7161 13.6218 19.9044 14.3918 20.1882L14.6901 19.3778C13.8534 19.0708 12.9823 18.8672 12.0962 18.7712L12.0038 19.6278Z" fill="#226FDB"/>
<path d="M21.7458 31.5155C21.8188 31.0043 21.8557 30.4888 21.8558 29.9726C21.8603 29.7181 21.8515 29.4634 21.8292 29.2099C21.8292 29.0912 21.8098 28.9705 21.7991 28.8552L20.9468 28.9422C20.9468 29.0504 20.9681 29.1603 20.9753 29.2703C20.993 29.5025 21 29.7402 21 29.9796C21.0002 30.4544 20.9664 30.9286 20.8989 31.3985L21.7458 31.5155Z" fill="#226FDB"/>
<path d="M38.9361 31.6326H38.0803V29.0628H38.9361V31.6326ZM38.9361 28.2292H38.0803V25.6631H38.9361V28.2292Z" fill="#226FDB"/>
<path d="M22.392 18.6807L21.5433 18.7837C21.6496 19.6544 21.8223 20.5159 22.0601 21.3605L22.8839 21.1264C22.658 20.3248 22.4936 19.5073 22.392 18.6807Z" fill="#226FDB"/>
<path d="M22.2695 16.6573V16.3771C22.2695 15.9728 22.2979 15.5862 22.3316 15.196L21.4795 15.1215C21.4438 15.5259 21.4209 15.948 21.4156 16.3629V16.6573C21.4156 17.0121 21.4279 17.3863 21.4492 17.748L22.305 17.6948C22.2802 17.3543 22.2695 17.005 22.2695 16.6573Z" fill="#226FDB"/>
<path d="M23.0011 11.7855L22.1915 11.5355C21.9327 12.3726 21.738 13.2281 21.6091 14.0946L22.456 14.2205C22.5769 13.3965 22.7592 12.5825 23.0011 11.7855Z" fill="#226FDB"/>
<path d="M23.4894 21.8411L24.1304 22.4103C24.7317 21.7334 25.2121 20.9584 25.5508 20.1191L24.759 19.7999C24.458 20.5482 24.0298 21.2388 23.4931 21.8411H23.4894Z" fill="#226FDB"/>
<path d="M25.1318 17.161C25.1333 17.4176 25.1196 17.6739 25.0909 17.9289C25.0558 18.2655 24.9965 18.5993 24.9133 18.9274L25.7443 19.1314C25.8382 18.7642 25.9059 18.3908 25.9467 18.014C25.9772 17.7282 25.9926 17.4411 25.9929 17.1539C25.9929 16.9181 25.9822 16.6786 25.961 16.4445L25.1068 16.519C25.1194 16.7442 25.1318 16.957 25.1318 17.161Z" fill="#226FDB"/>
<path d="M24.8636 15.7156L25.6963 15.5258C25.4931 14.6447 25.14 13.8048 24.6523 13.043L23.9315 13.5023C24.3669 14.1832 24.6821 14.9336 24.8636 15.7209V15.7156Z" fill="#226FDB"/>
<path d="M23.7753 23.5454C23.5517 23.0595 23.3474 22.5647 23.1681 22.061L22.3586 22.3413C22.4993 22.7468 22.6574 23.1518 22.8325 23.5561L23.7753 23.5454Z" fill="#226FDB"/>
<path d="M23.0314 11.2092L22.6763 12.0179C22.9579 12.2596 23.2204 12.5229 23.4611 12.8053L24.1145 12.2538C23.7904 11.8723 23.4308 11.5225 23.0402 11.2092H23.0314Z" fill="#226FDB"/>
<path d="M15.9774 24.6094C16.8653 24.7937 17.7785 24.8225 18.6761 24.6945L18.5554 23.8469C17.7552 23.9606 16.9413 23.9354 16.1497 23.7725L15.9774 24.6094Z" fill="#226FDB"/>
<path d="M29.3467 30.3875L28.8425 31.0774C29.4047 31.4873 29.9904 31.864 30.5966 32.2053H31.2039L31.4631 31.707C30.7253 31.3212 30.0179 30.8801 29.3467 30.3875Z" fill="#226FDB"/>
<path d="M18.0691 22.5558C18.5395 23.0252 18.9617 23.5402 19.3297 24.0934V24.0598C19.3749 23.925 19.4604 23.8074 19.5746 23.7228C19.6884 23.6392 19.8257 23.5932 19.967 23.5916H20.0237C19.6277 23.0023 19.1752 22.453 18.6726 21.951L18.0691 22.5558Z" fill="#226FDB"/>
<path d="M38.9361 2.71789V0.00979791H38.0803V2.71964L38.9361 2.71789Z" fill="#226FDB"/>
<path d="M55.0678 13.3906V13.2345C55.0634 13.1944 55.0539 13.1551 55.0393 13.1174H53.0065V13.9687H54.885L54.9861 13.7009C55.0464 13.6073 55.0728 13.4959 55.0608 13.3852L55.0678 13.3906Z" fill="#226FDB"/>
<path d="M38.9342 16.1873H38.0803V18.8829H38.9342V16.1873Z" fill="#226FDB"/>
<path d="M38.9342 20.2343H38.0803V22.9301H38.9342V20.2343Z" fill="#226FDB"/>
<path d="M38.9342 8.09324H38.0803V10.7889H38.9342V8.09324Z" fill="#226FDB"/>
<path d="M38.9342 4.04792H38.0803V6.74182H38.9342V4.04792Z" fill="#226FDB"/>
<path d="M51.7403 13.1174H49.1624V13.974H51.7403V13.1174Z" fill="#226FDB"/>
<path d="M45.3134 13.1174V13.974H47.8931L47.8789 13.1174H45.3134Z" fill="#226FDB"/>
<path d="M41.4587 13.1174V13.974H44.0438L44.0279 13.1174H41.4587Z" fill="#226FDB"/>
<path d="M38.9361 13.1175V12.1421H38.0803V14.836H38.9361V13.974H40.1948V13.1175H38.9361Z" fill="#226FDB"/>
<path d="M89.5527 4.72593H92.0129V5.94229H88.131V0.898995H89.5527V4.72593ZM98.9903 3.4V3.41376C98.986 3.76907 98.9107 4.11994 98.7688 4.44571C98.6269 4.77148 98.4213 5.06558 98.164 5.31071C97.9068 5.55585 97.6031 5.74707 97.2709 5.87312C96.9387 5.99917 96.5846 6.05752 96.2295 6.04472C94.6575 6.04472 93.4825 4.88288 93.4825 3.43415V3.41376C93.4876 3.06377 93.5616 2.71821 93.7003 2.39682C93.8389 2.07543 94.0396 1.78451 94.2907 1.54066C94.5418 1.29682 94.8385 1.10484 95.1638 0.975682C95.4892 0.846522 95.8367 0.782715 96.1867 0.787906L96.2433 0.789434C97.8219 0.789434 98.9903 1.95127 98.9903 3.4ZM97.5483 3.41376C97.5483 2.68914 97.0219 2.06083 96.2362 2.06083C95.4642 2.06083 94.9378 2.67589 94.9378 3.40714V3.42752C94.9378 4.15214 95.4708 4.78045 96.2433 4.78045C97.029 4.78045 97.5488 4.16539 97.5488 3.43415V3.41376H97.5483ZM104.041 3.74193C104.041 4.43904 103.672 4.77383 103.105 4.77383C102.537 4.77383 102.161 4.4319 102.161 3.70066V0.898486H100.726V3.72767H100.719C100.719 5.31296 101.635 6.03096 103.091 6.03096C104.547 6.03096 105.483 5.3201 105.483 3.70066V0.898486H104.041V3.74193ZM112.508 3.38624V3.40663C112.508 4.86249 111.428 5.94229 109.589 5.94229H107.648V0.898995H109.616C111.442 0.898995 112.508 1.93089 112.508 3.38624ZM111.059 3.40663C111.059 2.59997 110.492 2.12861 109.644 2.12861H109.07V4.70504H109.644C110.492 4.70504 111.059 4.2403 111.059 3.42701V3.40663ZM114.565 5.93567H115.979V4.13839H118.399V2.97654H115.979V2.12249H118.651V0.898995H114.565V5.93567ZM122.041 0.898995H120.626V5.94229H124.521V4.72593H122.041V0.898995ZM129.572 0.864344L131.759 5.94229H130.235L129.859 5.04696H127.891L127.528 5.94229H126.046L128.212 0.864344H129.572ZM129.456 3.9534L128.895 2.52506L128.321 3.96003H129.455L129.456 3.9534ZM137.055 4.19291L138.279 5.95605H136.638L135.613 4.42528H134.991V5.95605H133.57V0.898995H135.982C136.768 0.898995 137.301 1.09722 137.649 1.44577C137.95 1.73266 138.107 2.12249 138.107 2.62799V2.64175C138.107 3.41376 137.684 3.9264 137.055 4.19291ZM136.679 2.7029C136.679 2.30645 136.392 2.10822 135.914 2.10822H134.984V3.31796H135.928C136.406 3.31796 136.679 3.0856 136.679 2.72329V2.7029ZM141.559 4.75293V3.94627H144.005V2.83896H141.559V2.08733H144.258V0.897977H140.151V5.94127H144.292V4.75191H141.559V4.75293ZM83.8604 2.06032C84.4413 2.06032 84.8856 2.40225 85.0701 2.89399H86.5601C86.4286 2.28402 86.0869 1.73968 85.5947 1.35617C85.1025 0.972663 84.4911 0.7744 83.8675 0.796059C83.5123 0.783189 83.1582 0.841499 82.8259 0.967552C82.4936 1.09361 82.1898 1.28485 81.9325 1.53005C81.6752 1.77525 81.4696 2.06943 81.3277 2.3953C81.1857 2.72116 81.1105 3.07212 81.1062 3.42752V3.44128C81.1062 4.89001 82.268 6.05185 83.8466 6.05185C84.4558 6.07046 85.0531 5.88089 85.5401 5.51443C86.0271 5.14796 86.3746 4.62647 86.5254 4.03596L85.0354 4.02933C84.8306 4.46655 84.4138 4.78096 83.867 4.78096C83.095 4.78096 82.5686 4.14552 82.5686 3.42803V3.40765C82.5686 2.67538 83.0813 2.06032 83.8604 2.06032Z" fill="white"/>
<path d="M183.171 31V11.5342H186.231V19.337H186.342C187.307 17.6551 188.906 16.7453 190.781 16.7453C193.538 16.7453 195.275 18.6753 195.275 21.9012V31H192.132V21.9012C192.132 20.0539 191.194 18.9786 189.65 18.9786C187.61 18.9786 186.314 20.8259 186.314 23.8037V31H183.171Z" fill="white"/>
<path d="M174.024 31.3309C169.915 31.3309 167.131 28.4082 167.131 24.0243C167.131 19.6403 169.943 16.7453 174.024 16.7453C177.525 16.7453 179.979 18.7856 180.448 22.1218H177.194C176.891 20.1091 175.678 18.9786 173.969 18.9786C171.763 18.9786 170.384 20.9638 170.384 24.0243C170.384 27.1399 171.79 29.0975 173.969 29.0975C175.678 29.0975 176.891 27.9119 177.194 25.8716H180.476C179.979 29.2354 177.525 31.3309 174.024 31.3309Z" fill="white"/>
<path d="M158.023 31L157.995 17.0761H161.083V20.0263H161.194C162.021 18.0412 163.592 16.9107 165.55 16.9107H166.019V19.8058H165.412C162.545 19.8058 161.139 21.2947 161.139 24.2724V31H158.023Z" fill="white"/>
<path d="M146.908 31.3309C144.234 31.3309 142.387 29.6765 142.387 27.1951C142.387 24.7411 143.765 23.5004 147.184 22.8387L148.894 22.5354C150.631 22.2045 151.43 21.9012 151.43 20.9362C151.43 19.723 150.3 18.8959 148.756 18.8959C147.129 18.8959 146.136 19.8058 145.998 21.3498H142.773C142.993 18.5374 145.309 16.7453 148.756 16.7453C150.493 16.7453 151.899 17.1864 152.919 18.0136C153.967 18.8407 154.491 20.0263 154.491 21.8185V27.8568C154.491 29.1802 154.629 30.0901 154.904 31H151.844C151.596 30.3383 151.485 29.5387 151.485 28.7115H151.375C150.575 30.3107 148.921 31.3309 146.908 31.3309ZM147.901 29.1251C149.914 29.1251 151.43 27.4984 151.43 25.2374V23.3901C150.934 23.8588 150.052 24.2449 148.177 24.686C146.412 25.0996 145.612 25.7889 145.612 27.0296C145.612 28.3255 146.55 29.1251 147.901 29.1251Z" fill="white"/>
<path d="M133.607 31.3309C129.471 31.3309 126.769 28.3807 126.769 24.0519C126.769 19.6955 129.526 16.7453 133.579 16.7453C137.77 16.7453 140.334 19.6128 140.334 24.3827V24.7687H129.995C130.188 27.5811 131.456 29.1527 133.607 29.1527C135.234 29.1527 136.419 28.2428 136.805 26.6436H140.059C139.342 29.6214 136.805 31.3309 133.607 31.3309ZM130.078 22.6181H137.026C136.778 20.2193 135.427 18.9235 133.579 18.9235C131.677 18.9235 130.436 20.2745 130.078 22.6181Z" fill="white"/>
<path d="M118.885 31.3309C115.384 31.3309 113.012 29.5111 112.682 26.5058H115.935C116.018 28.1601 117.176 29.1802 118.885 29.1802C120.484 29.1802 121.505 28.4082 121.505 27.1951C121.505 26.2025 120.926 25.7889 119.078 25.3753L117.782 25.072C114.501 24.3551 113.205 23.1695 113.205 21.0189C113.205 18.5099 115.494 16.7453 118.72 16.7453C122.001 16.7453 124.207 18.4272 124.565 21.1844H121.312C121.201 19.723 120.236 18.8959 118.72 18.8959C117.341 18.8959 116.459 19.6128 116.459 20.7156C116.459 21.7082 117.121 22.2045 118.803 22.563L119.988 22.8111C123.38 23.5556 124.758 24.686 124.758 26.7539C124.758 29.5387 122.414 31.3309 118.885 31.3309Z" fill="white"/>
<path d="M104.15 31.3309C100.014 31.3309 97.3121 28.3807 97.3121 24.0519C97.3121 19.6955 100.069 16.7453 104.122 16.7453C108.313 16.7453 110.878 19.6128 110.878 24.3827V24.7687H100.538C100.731 27.5811 101.999 29.1527 104.15 29.1527C105.777 29.1527 106.962 28.2428 107.348 26.6436H110.602C109.885 29.6214 107.348 31.3309 104.15 31.3309ZM100.621 22.6181H107.569C107.321 20.2193 105.97 18.9235 104.122 18.9235C102.22 18.9235 100.979 20.2745 100.621 22.6181Z" fill="white"/>
<path d="M81.1838 31V11.5342H89.5105C93.0398 11.5342 95.3834 13.5193 95.3834 16.442C95.3834 18.9235 93.7291 20.6881 91.1097 21.1292V21.2395C93.1776 21.3222 94.5011 22.7008 94.5011 24.7963V27.8844C94.5011 29.5111 94.6665 30.0901 95.3282 31H91.9369C91.3579 30.3107 91.22 29.6214 91.22 27.9671V25.2926C91.22 23.4177 90.3101 22.5905 88.3801 22.5905H84.4373V31H81.1838ZM84.4373 19.9712H88.7937C90.7513 19.9712 91.992 18.8959 91.992 17.0761C91.992 15.2564 90.7237 14.2086 88.7937 14.2086H84.4373V19.9712Z" fill="white"/>
</svg>
