<svg width="2" height="20" viewBox="0 0 2 20" fill="none" xmlns="http://www.w3.org/2000/svg">
<g clip-path="url(#clip0_590_786)">
<path d="M2 302.953V308H0V302.953H2ZM1362 302.953V308H1360V302.953H1362ZM2 282.766V292.859H0V282.766H2ZM1362 282.766V292.859H1360V282.766H1362ZM2 262.578V272.672H0V262.578H2ZM1362 262.578V272.672H1360V262.578H1362ZM2 242.391V252.484H0V242.391H2ZM1362 242.391V252.484H1360V242.391H1362ZM2 222.203V232.297H0V222.203H2ZM1362 222.203V232.297H1360V222.203H1362ZM2 202.016V212.109H0V202.016H2ZM1362 202.016V212.109H1360V202.016H1362ZM2 181.828V191.922H0V181.828H2ZM1362 181.828V191.922H1360V181.828H1362ZM2 161.641V171.734H0V161.641H2ZM1362 161.641V171.734H1360V161.641H1362ZM2 141.453V151.547H0V141.453H2ZM1362 141.453V151.547H1360V141.453H1362ZM2 121.266V131.359H0V121.266H2ZM1362 121.266V131.359H1360V121.266H1362ZM2 101.078V111.172H0V101.078H2ZM1362 101.078V111.172H1360V101.078H1362ZM2 80.8906V90.9844H0V80.8906H2ZM1362 80.8906V90.9844H1360V80.8906H1362ZM2 60.7031V70.7969H0V60.7031H2ZM1362 60.7031V70.7969H1360V60.7031H1362ZM2 40.5156V50.6094H0V40.5156H2ZM1362 40.5156V50.6094H1360V40.5156H1362ZM2 20.3281V30.4219H0V20.3281H2ZM1362 20.3281V30.4219H1360V20.3281H1362ZM2 0.140625V10.2344H0V0.140625H2ZM1362 0.140625V10.2344H1360V0.140625H1362ZM2 -15V-9.95312H0V-15H2ZM1362 -15V-9.95312H1360V-15H1362Z" fill="#E1E1E1"/>
</g>
<defs>
<clipPath id="clip0_590_786">
<rect width="2" height="20" fill="white"/>
</clipPath>
</defs>
</svg>
