<?xml version="1.0" encoding="UTF-8"?>
<!-- This file is generated by npm run icons -->
<svg xmlns="http://www.w3.org/2000/svg" xmlns:xlink="http://www.w3.org/1999/xlink" width="0" height="0">
<defs>
<symbol viewBox="0 0 24 24" id="arrowRight">
<path fill-rule="evenodd" clip-rule="evenodd" d="M12.3516 3.95161C12.5767 3.72664 12.8818 3.60027 13.2 3.60027C13.5182 3.60027 13.8234 3.72664 14.0484 3.95161L21.2484 11.1516C21.4734 11.3766 21.5998 11.6818 21.5998 12C21.5998 12.3182 21.4734 12.6234 21.2484 12.8484L14.0484 20.0484C13.8221 20.267 13.519 20.388 13.2043 20.3852C12.8897 20.3825 12.5887 20.2563 12.3662 20.0338C12.1438 19.8113 12.0176 19.5103 12.0148 19.1957C12.0121 18.8811 12.133 18.5779 12.3516 18.3516L17.5032 13.2H3.60002C3.28176 13.2 2.97654 13.0736 2.7515 12.8485C2.52645 12.6235 2.40002 12.3183 2.40002 12C2.40002 11.6817 2.52645 11.3765 2.7515 11.1515C2.97654 10.9264 3.28176 10.8 3.60002 10.8H17.5032L12.3516 5.64841C12.1267 5.42338 12.0003 5.11821 12.0003 4.80001C12.0003 4.48181 12.1267 4.17664 12.3516 3.95161Z"></path>
</symbol>
<symbol viewBox="0 0 20 20" id="arrowUpRight">
<path fill-rule="evenodd" clip-rule="evenodd" d="M5.46883 5.04838C5.46887 4.78321 5.57423 4.52892 5.76173 4.34142C5.94923 4.15392 6.20352 4.04857 6.46868 4.04853L14.954 4.04853C15.2191 4.04857 15.4734 4.15392 15.6609 4.34142C15.8484 4.52892 15.9538 4.78321 15.9538 5.04838V13.5337C15.9493 13.7958 15.8419 14.0457 15.6549 14.2295C15.4679 14.4133 15.2162 14.5163 14.954 14.5163C14.6918 14.5163 14.44 14.4133 14.253 14.2295C14.066 14.0457 13.9587 13.7958 13.9541 13.5337V7.46244L5.76158 15.655C5.57404 15.8425 5.31969 15.9479 5.05447 15.9479C4.78925 15.9479 4.5349 15.8425 4.34736 15.655C4.15983 15.4674 4.05447 15.2131 4.05447 14.9479C4.05447 14.6827 4.15983 14.4283 4.34736 14.2408L12.5399 6.04823H6.46868C6.20352 6.04819 5.94923 5.94283 5.76173 5.75533C5.57423 5.56783 5.46887 5.31354 5.46883 5.04838Z"></path>
</symbol>
<symbol viewBox="0 0 24 24" id="blog">
<path d="M19.5 2.25H4.5L3.75 3V20.925L4.5 21.675H19.5L20.25 20.925V3L19.5 2.25ZM18.75 20.175H5.25V3.75H18.75V20.175Z"></path>
<path d="M11.9475 5.51625H6.945V7.01625H11.9475V5.51625Z"></path>
<path d="M17.0137 8.65125H6.945V10.1512H17.0137V8.65125Z"></path>
<path d="M17.0137 11.7863H6.945V13.2863H17.0137V11.7863Z"></path>
</symbol>
<symbol viewBox="0 0 24 24" id="bluesky">
<path d="M12 11.1878C10.9128 9.07465 7.9536 5.13505 5.202 3.19345C2.5656 1.33345 1.5612 1.65385 0.9024 1.95385C0.1392 2.29585 0 3.46825 0 4.15585C0 4.84585 0.378 9.80665 0.624 10.6359C1.44 13.3719 4.3368 14.2958 7.008 13.9994C3.096 14.579 -0.3804 16.0035 4.176 21.0771C9.1896 26.267 11.0472 19.9646 12 16.769C12.9528 19.9646 14.0496 26.0403 19.7328 21.0771C24 16.7691 20.9052 14.579 16.9932 13.9994C19.6632 14.2958 22.5612 13.3719 23.376 10.6359C23.622 9.80785 24 4.84585 24 4.15705C24 3.46705 23.8608 2.29705 23.0976 1.95145C22.4388 1.65385 21.4344 1.33105 18.798 3.19105C16.0464 5.13625 13.086 9.07585 12 11.1878Z"></path>
</symbol>
<symbol viewBox="0 0 24 24" id="bolt">
<path d="M18.4087 9.59999H13.3612L14.9362 0.68999L13.5712 0.14624L4.965 13.125L5.59125 14.2875H10.7662L9.3525 23.2875L10.725 23.805L19.0425 10.7512L18.4087 9.59999ZM11.3925 19.9912L12.375 13.665L11.625 12.7987H6.98625L12.8325 3.97874L11.73 10.2187L12.48 11.1H17.055L11.3925 19.9912Z"></path>
</symbol>
<symbol viewBox="0 0 24 24" id="chevronUpDown">
<path d="M15.2197 14.4697C15.5126 14.1768 15.9874 14.1768 16.2803 14.4697C16.5732 14.7626 16.5732 15.2374 16.2803 15.5303L12.5303 19.2803C12.2374 19.5732 11.7626 19.5732 11.4697 19.2803L7.71973 15.5303C7.42684 15.2374 7.42684 14.7626 7.71973 14.4697C8.01262 14.1768 8.48738 14.1768 8.78028 14.4697L12 17.6895L15.2197 14.4697ZM11.5264 4.66797C11.821 4.42766 12.2557 4.44512 12.5303 4.71973L16.2803 8.46973C16.5732 8.76262 16.5732 9.23738 16.2803 9.53027C15.9874 9.82317 15.5126 9.82317 15.2197 9.53027L12 6.31055L8.78028 9.53027C8.48738 9.82317 8.01262 9.82317 7.71973 9.53027C7.42684 9.23738 7.42684 8.76262 7.71973 8.46973L11.4697 4.71973L11.5264 4.66797Z"></path>
</symbol>
<symbol viewBox="0 0 24 24" id="hand">
<path d="M12.463 11.25V3.07486C12.4629 2.85263 12.3747 2.63949 12.2175 2.48234C12.0603 2.32521 11.8472 2.23687 11.625 2.23687C11.4027 2.23687 11.1897 2.32521 11.0325 2.48234C10.8753 2.63949 10.787 2.85263 10.787 3.07486V4.57486H10.7866L10.8618 10.4906C10.867 10.8974 10.5413 11.2316 10.1345 11.2369C9.72758 11.242 9.39337 10.9163 9.38815 10.5095L9.31332 4.58432C9.31328 4.58122 9.31332 4.57796 9.31332 4.57486C9.3133 4.46485 9.29127 4.35578 9.24917 4.25414C9.20707 4.15255 9.14558 4.06011 9.06784 3.98234C8.99001 3.90452 8.89733 3.84272 8.79564 3.8006C8.69398 3.75851 8.58494 3.73687 8.47491 3.73687C8.36487 3.73688 8.25585 3.75849 8.15419 3.8006C8.05253 3.84271 7.96021 3.90454 7.8824 3.98234C7.8046 4.06014 7.74277 4.1525 7.70065 4.25414C7.65855 4.35578 7.63694 4.46485 7.63692 4.57486V12C7.63692 12.4069 7.30699 12.7368 6.90008 12.7369C6.49313 12.7369 6.16324 12.407 6.16324 12V7.57486L6.15912 7.49221C6.14008 7.30035 6.05528 7.11989 5.91776 6.98234C5.76057 6.82516 5.54712 6.73687 5.32483 6.73687C5.1026 6.73691 4.88946 6.8252 4.73231 6.98234C4.57517 7.13949 4.48688 7.35263 4.48684 7.57486V15.75C4.48684 17.3448 5.12025 18.8744 6.24794 20.0021C7.37562 21.1298 8.90521 21.7632 10.5 21.7632H12.5181C13.7149 21.763 14.8626 21.2872 15.7089 20.4408L17.4408 18.7089H17.4412C18.2875 17.8627 18.763 16.7149 18.7632 15.5181V15.5169L18.766 13.493V13.4902C18.7681 13.1191 18.9171 12.7638 19.1801 12.5021C19.258 12.4242 19.3197 12.3316 19.3618 12.2299C19.4039 12.1282 19.4256 12.0192 19.4256 11.9092C19.4256 11.799 19.404 11.6898 19.3618 11.588C19.3197 11.4864 19.2579 11.3941 19.1801 11.3162C19.1022 11.2384 19.0096 11.1762 18.9079 11.1341C18.8062 11.092 18.6972 11.0704 18.5872 11.0703C18.4771 11.0703 18.3678 11.0919 18.266 11.1341C18.1897 11.1657 18.1187 11.2085 18.0551 11.2607L17.9938 11.3162C17.418 11.8913 17.0927 12.671 17.0896 13.4848C17.0896 13.5045 17.0883 13.5239 17.0868 13.5432V14.9581C17.0875 14.972 17.0888 14.9859 17.0888 15C17.0888 15.407 16.7589 15.7369 16.352 15.7369H16.3495C15.8558 15.7366 15.3669 15.834 14.9108 16.0231C14.4547 16.2121 14.0404 16.4891 13.6916 16.8384C13.4041 17.1264 12.9373 17.1272 12.6493 16.8397C12.3613 16.5522 12.361 16.0853 12.6484 15.7973C13.1342 15.3107 13.7114 14.9249 14.3466 14.6616C14.7534 14.493 15.179 14.377 15.6131 14.3154V4.57486C15.613 4.35263 15.5247 4.13949 15.3676 3.98234C15.2104 3.8252 14.9973 3.73689 14.7751 3.73687C14.5528 3.73687 14.3393 3.82516 14.1821 3.98234C14.0251 4.13948 13.9367 4.35267 13.9367 4.57486V11.25C13.9367 11.657 13.6068 11.9869 13.1998 11.9869C12.793 11.9868 12.463 11.6569 12.463 11.25ZM17.0868 10.1505C17.2707 9.99356 17.4782 9.86548 17.7023 9.77264C17.9828 9.65649 18.2836 9.59665 18.5872 9.59665C18.8908 9.59668 19.1916 9.65646 19.472 9.77264C19.7525 9.88883 20.0074 10.0592 20.222 10.2739C20.4368 10.4886 20.6071 10.7437 20.7233 11.0243C20.8394 11.3048 20.8993 11.6055 20.8993 11.9092C20.8992 12.2128 20.8395 12.5135 20.7233 12.794C20.6103 13.0667 20.4456 13.3146 20.2393 13.5255L20.2368 15.5189C20.2364 17.1064 19.6057 18.6288 18.4831 19.7513L16.7508 21.4828C15.6282 22.6055 14.1058 23.2367 12.5181 23.2369H10.5C8.51436 23.2369 6.61005 22.4481 5.206 21.044C3.80194 19.64 3.01315 17.7357 3.01315 15.75V7.57486C3.0132 6.96178 3.25686 6.37392 3.69037 5.9404C4.12389 5.50689 4.71175 5.26323 5.32483 5.26318C5.61446 5.26318 5.89845 5.31803 6.16324 5.42108V4.57486C6.16326 4.27134 6.22307 3.97083 6.33922 3.6904C6.4554 3.40992 6.62578 3.15508 6.84046 2.9404C7.05512 2.72575 7.30999 2.55534 7.59046 2.43917C7.87088 2.32304 8.1714 2.26319 8.47491 2.26318C8.77851 2.26318 9.0793 2.32299 9.35978 2.43917C9.37266 2.4445 9.38526 2.45047 9.39802 2.45603C9.50382 2.07545 9.70591 1.72466 9.99013 1.4404C10.4237 1.00685 11.0119 0.763184 11.625 0.763184C12.2381 0.763184 12.8263 1.00685 13.2599 1.4404C13.544 1.72463 13.7458 2.07549 13.8516 2.45603C14.1402 2.33026 14.4542 2.26318 14.7751 2.26318C15.3882 2.26321 15.976 2.50689 16.4095 2.9404C16.8431 3.37392 17.0867 3.96178 17.0868 4.57486V10.1505Z"></path>
</symbol>
<symbol viewBox="0 0 24 24" id="hidden">
<path d="M12 4.755C9.58926 4.76038 7.22204 5.39752 5.13429 6.60293C3.04654 7.80833 1.3112 9.53989 0.10125 11.625V12.375C1.30725 14.4635 3.04173 16.1979 5.13038 17.4037C7.21903 18.6094 9.58828 19.2442 12 19.2442C14.4117 19.2442 16.781 18.6094 18.8696 17.4037C20.9583 16.1979 22.6928 14.4635 23.8988 12.375V11.625C22.6888 9.53989 20.9535 7.80833 18.8657 6.60293C16.778 5.39752 14.4107 4.76038 12 4.755ZM12 17.745C9.92633 17.74 7.88759 17.2107 6.07342 16.2063C4.25925 15.2018 2.72857 13.7549 1.62375 12C2.725 10.2419 4.25493 8.79239 6.06992 7.78761C7.88491 6.78283 9.92545 6.2557 12 6.2557C14.0746 6.2557 16.1151 6.78283 17.9301 7.78761C19.7451 8.79239 21.275 10.2419 22.3763 12C21.2714 13.7549 19.7408 15.2018 17.9266 16.2063C16.1124 17.2107 14.0737 17.74 12 17.745Z"></path>
<path d="M15.7123 15.7124C16.1998 15.2249 16.5865 14.6461 16.8504 14.0091C17.1142 13.3722 17.25 12.6895 17.25 12.0001C17.25 11.3106 17.1142 10.6279 16.8504 9.99097C16.5865 9.35401 16.1998 8.77526 15.7123 8.28775C15.2248 7.80024 14.646 7.41353 14.0091 7.14969C13.3721 6.88586 12.6894 6.75006 12 6.75006C11.3106 6.75006 10.6279 6.88586 9.99091 7.14969C9.35395 7.41353 8.7752 7.80024 8.28769 8.28775L9.34687 9.34694C9.69529 8.99852 10.1089 8.72215 10.5641 8.53359C11.0194 8.34503 11.5073 8.24797 12 8.24797C12.4927 8.24797 12.9806 8.34503 13.4359 8.53359C13.8911 8.72215 14.3047 8.99852 14.6531 9.34694C15.0015 9.69535 15.2779 10.109 15.4665 10.5642C15.655 11.0194 15.7521 11.5073 15.7521 12.0001C15.7521 12.4928 15.655 12.9807 15.4665 13.4359C15.2779 13.8911 15.0015 14.3048 14.6531 14.6532L15.7123 15.7124Z"></path>
<path d="M22.0608 21.0644L21.0001 22.1251L2.625 3.74999L3.68566 2.68933L22.0608 21.0644Z"></path>
</symbol>
<symbol viewBox="0 0 24 24" id="presentation">
<path d="M19.5 3.75H4.5V14.25C4.5 14.6478 4.65815 15.0292 4.93945 15.3105C5.22076 15.5919 5.60218 15.75 6 15.75H18C18.3978 15.75 18.7792 15.5919 19.0605 15.3105C19.3419 15.0292 19.5 14.6478 19.5 14.25V3.75ZM8.29102 18.75H15.709L15.209 17.25H8.79102L8.29102 18.75ZM16.124 6.95605C16.4825 6.74847 16.9418 6.87105 17.1494 7.22949C17.3566 7.58783 17.2342 8.04637 16.876 8.25391C15.4431 9.08371 14.2101 10.2185 13.2637 11.5771C13.1368 11.7592 12.9349 11.8759 12.7139 11.8955C12.4929 11.915 12.2741 11.8356 12.1172 11.6787L10.499 10.0605L8.03027 12.5303C7.73738 12.8232 7.26262 12.8232 6.96973 12.5303C6.67683 12.2374 6.67683 11.7626 6.96973 11.4697L9.96973 8.46973L10.0264 8.41797C10.3209 8.17766 10.7557 8.19512 11.0303 8.46973L12.5674 10.0059C13.5538 8.78125 14.7589 7.74666 16.124 6.95605ZM21 14.25C21 15.0456 20.6837 15.8085 20.1211 16.3711C19.5585 16.9337 18.7956 17.25 18 17.25H16.791L17.9619 20.7627C18.0929 21.1557 17.8803 21.5809 17.4873 21.7119C17.0943 21.8429 16.6691 21.6303 16.5381 21.2373L16.209 20.25H7.79102L7.46191 21.2373C7.33093 21.6303 6.90565 21.8429 6.5127 21.7119C6.11974 21.5809 5.9071 21.1557 6.03809 20.7627L7.20898 17.25H6C5.20435 17.25 4.44152 16.9337 3.87891 16.3711C3.3163 15.8085 3 15.0456 3 14.25V3.75H2.25C1.83579 3.75 1.5 3.41421 1.5 3C1.5 2.58579 1.83579 2.25 2.25 2.25H21.75C22.1642 2.25 22.5 2.58579 22.5 3C22.5 3.41421 22.1642 3.75 21.75 3.75H21V14.25Z"></path>
</symbol>
<symbol viewBox="0 0 24 24" id="publication">
<path d="M19.5 2.25H4.5L3.75 3V20.925L4.5 21.675H19.5L20.25 20.925V3L19.5 2.25ZM18.75 20.175H5.25V3.75H18.75V20.175Z"></path>
<path d="M11.9475 5.51625H6.945V7.01625H11.9475V5.51625Z"></path>
<path d="M17.0137 8.65125H6.945V10.1512H17.0137V8.65125Z"></path>
<path d="M17.0137 11.7863H6.945V13.2863H17.0137V11.7863Z"></path>
</symbol>
<symbol viewBox="0 0 24 24" id="search">
<path d="M22.26 20.0662L14.625 13.125C15.6598 11.7061 16.1116 9.9446 15.8874 8.20281C15.6632 6.46103 14.7802 4.87134 13.4199 3.76066C12.0596 2.64998 10.3254 2.10274 8.57395 2.23149C6.82252 2.36023 5.18699 3.15517 4.00371 4.45282C2.82042 5.75048 2.17933 7.4522 2.21227 9.20805C2.24521 10.9639 2.94967 12.6404 4.1808 13.8927C5.41192 15.1451 7.07611 15.8781 8.83113 15.9411C10.5862 16.0041 12.2986 15.3922 13.6163 14.2312L21.2475 21.1725L22.26 20.0662ZM9.09755 14.4412C8.04055 14.4412 7.00727 14.128 6.1282 13.5411C5.24914 12.9541 4.56373 12.1199 4.15855 11.1436C3.75338 10.1673 3.64661 9.09291 3.85173 8.05601C4.05685 7.01911 4.56466 6.06625 5.31102 5.31779C6.05739 4.56934 7.00882 4.05886 8.04514 3.85083C9.08146 3.64281 10.1562 3.74657 11.1336 4.14901C12.111 4.55145 12.9472 5.23452 13.5365 6.11193C14.1259 6.98935 14.4421 8.02176 14.445 9.07875C14.4431 10.4964 13.879 11.8554 12.8766 12.8578C11.8742 13.8602 10.5152 14.4243 9.09755 14.4262V14.4412Z"></path>
</symbol>
<symbol viewBox="0 0 24 24" id="shield">
<path d="M19.2787 5.16756L18.7687 5.09631C16.5966 4.77541 14.5803 3.77972 13.005 2.25006L12.5587 1.74756H11.4337L10.9987 2.25006C9.42749 3.77692 7.41684 4.77241 5.24999 5.09631L4.73999 5.16756L4.09499 5.91756V11.2126C4.07624 18.5438 11.1 22.1251 11.3962 22.2826L11.6625 22.4176H12.3375L12.6037 22.2826C12.9 22.1363 19.9237 18.5326 19.9237 11.2126V5.91006L19.2787 5.16756ZM18.4237 11.2126C18.4237 17.3438 12.75 20.5238 12 20.9063C11.2725 20.5313 5.57624 17.3476 5.57624 11.2126V6.56256C7.99123 6.17621 10.2316 5.06452 12 3.37506C13.7678 5.0653 16.0085 6.17712 18.4237 6.56256V11.2126Z"></path>
<path d="M8.79374 11.3663L7.70624 12.4051L10.845 15.6788L16.2825 10.1776L15.2175 9.12381L10.86 13.5301L8.79374 11.3663Z"></path>
</symbol>
<symbol viewBox="0 0 24 24" id="transparent">
<path d="M11.5995 20.1154C11.732 20.1218 11.8657 20.1249 12.0001 20.1249V21.9999L11.7419 21.9966C11.6641 21.9946 11.5864 21.9915 11.509 21.9878L11.5995 20.1154ZM12.4454 21.0518L12.4905 21.9878C12.328 21.9956 12.1645 21.9999 12.0001 21.9999V20.1249C12.1345 20.1249 12.2679 20.1218 12.4004 20.1154L12.4454 21.0518ZM10.0237 19.8835C10.2794 19.9474 10.5402 19.9991 10.8052 20.0381L10.5602 21.7025L10.532 21.8922C10.2056 21.8442 9.8845 21.7805 9.56921 21.7018L10.0237 19.8835ZM13.9766 19.8835L14.4303 21.7018C14.115 21.7805 13.7939 21.8442 13.4675 21.8922L13.3313 20.9653L13.1951 20.0381C13.4601 19.9991 13.7209 19.9474 13.9766 19.8835ZM16.2291 20.9423L16.276 21.0415C15.9815 21.181 15.6791 21.3065 15.3696 21.4172L15.054 20.5354L14.7383 19.6525C14.9893 19.5626 15.2346 19.4607 15.4736 19.3474L16.2291 20.9423ZM8.52625 19.3478C8.76531 19.461 9.01093 19.5626 9.26196 19.6525L8.94556 20.535L8.94592 20.5354L8.62988 21.4169C8.32046 21.3061 8.01798 21.181 7.72351 21.0415L8.52625 19.3478ZM7.16101 18.5275C7.37427 18.6859 7.59547 18.8341 7.82385 18.9713L6.85815 20.5779C6.57701 20.409 6.30489 20.2267 6.0426 20.0319L7.16101 18.5275ZM17.943 20.0132L17.9569 20.0322C17.6947 20.227 17.4225 20.409 17.1414 20.5779L16.6591 19.7751L16.1764 18.9713C16.4048 18.8341 16.626 18.6859 16.8392 18.5275L17.943 20.0132ZM5.97925 17.4559C6.15815 17.6532 6.34668 17.8417 6.54395 18.0206L5.28418 19.4097C5.04172 19.1898 4.81046 18.9578 4.59058 18.7153L5.97925 17.4559ZM18.0206 17.4559L19.4093 18.7153C19.1894 18.9578 18.9578 19.1894 18.7153 19.4093L18.0858 18.7153L17.4559 18.0206C17.6532 17.8417 17.8417 17.6532 18.0206 17.4559ZM5.02856 16.1764C5.16575 16.4048 5.31399 16.626 5.47241 16.8392L3.96729 17.9569C3.77249 17.6947 3.59046 17.4224 3.42163 17.1414L5.02856 16.1764ZM18.9713 16.1764L20.5779 17.1414C20.409 17.4225 20.227 17.6947 20.0322 17.9569L18.5275 16.8392C18.6859 16.626 18.8341 16.4048 18.9713 16.1764ZM4.34741 14.7383C4.43724 14.9893 4.53921 15.2346 4.65247 15.4736L2.95837 16.276C2.81883 15.9815 2.69303 15.6791 2.58228 15.3696L4.34741 14.7383ZM21.4172 15.3696C21.3065 15.6791 21.181 15.9815 21.0415 16.276L19.3478 15.4736C19.461 15.2346 19.5627 14.9892 19.6525 14.7383L21.4172 15.3696ZM3.96216 13.1951C4.00114 13.4601 4.05285 13.7209 4.1167 13.9766L2.2981 14.4303C2.21937 14.115 2.1553 13.7939 2.1073 13.4675L3.96216 13.1951ZM20.965 13.3313L21.8922 13.4675C21.8442 13.7939 21.7805 14.115 21.7018 14.4303L19.8835 13.9766C19.9474 13.7209 19.9991 13.4601 20.0381 13.1951L20.965 13.3313ZM2 12.0001C2 11.8355 2.00422 11.6717 2.01208 11.509L3.88452 11.5995C3.87812 11.732 3.875 11.8657 3.875 12.0001C3.875 12.1345 3.87812 12.2679 3.88452 12.4004L2.94775 12.4454L2.94812 12.4458L2.01208 12.4905C2.00835 12.4132 2.00526 12.3357 2.0033 12.2579L2 12.0001ZM21.9966 12.2579C21.9946 12.3357 21.9915 12.4132 21.9878 12.4905L20.1154 12.4004C20.1218 12.2679 20.1249 12.1345 20.1249 12.0001C20.1249 11.8657 20.1218 11.732 20.1154 11.5995L21.9878 11.509C21.9957 11.6717 21.9999 11.8355 21.9999 12.0001L21.9966 12.2579ZM4.1167 10.0237C4.05285 10.2794 4.00114 10.5402 3.96216 10.8052L2.1073 10.532C2.15531 10.2056 2.21935 9.88451 2.2981 9.56921L4.1167 10.0237ZM21.7018 9.56921C21.7805 9.8845 21.8442 10.2056 21.8922 10.532L20.0381 10.8052C19.9991 10.5402 19.9474 10.2794 19.8835 10.0237L21.7018 9.56921ZM4.65247 8.52625C4.53919 8.76532 4.43725 9.01092 4.34741 9.26196L2.58264 8.62988C2.6934 8.32043 2.81884 8.01801 2.95837 7.72351L4.65247 8.52625ZM21.0415 7.72351C21.181 8.01798 21.3061 8.32046 21.4169 8.62988L20.5354 8.94592L20.535 8.94556L19.6525 9.26196C19.5626 9.01092 19.4607 8.76532 19.3474 8.52625L21.0415 7.72351ZM5.47241 7.16101C5.31401 7.37425 5.16573 7.59549 5.02856 7.82385L3.42163 6.85815C3.59051 6.57702 3.77281 6.30488 3.96765 6.0426L5.47241 7.16101ZM20.0319 6.0426C20.2267 6.30489 20.409 6.57701 20.5779 6.85815L19.7751 7.34119L19.7748 7.34082L18.9713 7.82385C18.8341 7.59547 18.6859 7.37427 18.5275 7.16101L20.0319 6.0426ZM5.28455 4.59058L6.54395 5.97925C6.34666 6.15817 6.15817 6.34666 5.97925 6.54395L4.59021 5.28455C4.81014 5.04202 5.04166 4.81015 5.28418 4.59021L5.28455 4.59058ZM18.7153 4.59021C18.9579 4.81014 19.1897 5.04166 19.4097 5.28418L18.0206 6.54395C17.8417 6.34668 17.6532 6.15815 17.4559 5.97925L18.7153 4.59021ZM7.82385 5.02856C7.59549 5.16573 7.37425 5.31401 7.16101 5.47241L6.0426 3.96765C6.30488 3.77281 6.57702 3.59051 6.85815 3.42163L7.82385 5.02856ZM17.1414 3.42163C17.4224 3.59046 17.6947 3.77249 17.9569 3.96729L16.8392 5.47241C16.626 5.31399 16.4048 5.16575 16.1764 5.02856L17.1414 3.42163ZM9.26196 4.34741C9.01092 4.43725 8.76532 4.53919 8.52625 4.65247L7.72351 2.95837C8.01801 2.81884 8.32043 2.6934 8.62988 2.58264L9.26196 4.34741ZM15.3696 2.58228C15.6791 2.69303 15.9815 2.81883 16.276 2.95837L15.4736 4.65247C15.2346 4.53921 14.9893 4.43724 14.7383 4.34741L15.3696 2.58228ZM10.8052 3.96216C10.5402 4.00114 10.2794 4.05285 10.0237 4.1167L9.56921 2.2981C9.88451 2.21935 10.2056 2.15531 10.532 2.1073L10.8052 3.96216ZM13.4675 2.1073C13.7939 2.1553 14.115 2.21937 14.4303 2.2981L13.9766 4.1167C13.7209 4.05285 13.4601 4.00114 13.1951 3.96216L13.4675 2.1073ZM12.2579 2.0033C12.3357 2.00526 12.4132 2.00835 12.4905 2.01208L12.4004 3.88452C12.2679 3.87812 12.1345 3.875 12.0001 3.875C11.8657 3.875 11.732 3.87812 11.5995 3.88452L11.509 2.01208C11.6717 2.00422 11.8355 2 12.0001 2L12.2579 2.0033Z"></path>
</symbol>
<symbol viewBox="0 0 24 24" id="video">
<path fill-rule="evenodd" clip-rule="evenodd" d="M2.06689 4.6875L2.81689 3.9375H21.1832L21.9332 4.6875V17.2718L21.1832 18.0218H2.81689L2.06689 17.2718V4.6875ZM3.56689 5.4375V16.5218H20.4332V5.4375H3.56689Z"></path>
<path d="M11.0915 8.4375L10.5 8.76992V13.3551L11.0915 13.6875L15 11.3911V10.7263L11.0915 8.4375Z"></path>
<path fill-rule="evenodd" clip-rule="evenodd" d="M18.75 20.0625H5.25V18.5625H18.75V20.0625Z"></path>
</symbol>
<symbol viewBox="0 0 24 24" id="x">
<path d="M18.9 1.12457H22.5806L14.5406 10.3371L24 22.8754H16.5943L10.7897 15.2726L4.15543 22.8754H0.471429L9.07029 13.0183L0 1.12629H7.59429L12.8331 8.07429L18.9 1.12457ZM17.6057 20.6674H19.6457L6.48 3.21772H4.29257L17.6057 20.6674Z"></path>
</symbol>
</defs>
</svg>
