<?xml version="1.0" encoding="UTF-8" standalone="no"?>
<svg
   width="32"
   height="32"
   viewBox="0 0 32 32"
   fill="none"
   version="1.1"
   id="svg2"
   sodipodi:docname="bluesky.svg"
   xml:space="preserve"
   inkscape:version="1.3.1 (9b9bdc1480, 2023-11-25, custom)"
   xmlns:inkscape="http://www.inkscape.org/namespaces/inkscape"
   xmlns:sodipodi="http://sodipodi.sourceforge.net/DTD/sodipodi-0.dtd"
   xmlns="http://www.w3.org/2000/svg"
   xmlns:svg="http://www.w3.org/2000/svg"><sodipodi:namedview
     id="namedview2"
     pagecolor="#ffffff"
     bordercolor="#000000"
     borderopacity="0.25"
     inkscape:showpageshadow="2"
     inkscape:pageopacity="0.0"
     inkscape:pagecheckerboard="0"
     inkscape:deskcolor="#d1d1d1"
     inkscape:zoom="26.028864"
     inkscape:cx="12.793489"
     inkscape:cy="13.696333"
     inkscape:window-width="1920"
     inkscape:window-height="1003"
     inkscape:window-x="0"
     inkscape:window-y="0"
     inkscape:window-maximized="1"
     inkscape:current-layer="svg2" /><rect
     width="32"
     height="32"
     rx="16"
     fill="#E1E1E1"
     id="rect1" /><defs
     id="defs2"><clipPath
       id="clip0_418_2216"><rect
         width="15.6479"
         height="16"
         fill="white"
         transform="translate(8 8)"
         id="rect2" /></clipPath></defs><path
     d="M 20.72021,9.2292998 C 18.809596,10.758954 16.754517,13.860456 15.999997,15.524899 15.245417,13.860574 13.190449,10.758925 11.279775,9.2292998 9.901182,8.1255684 7.6675,7.2715583 7.6675,9.9890572 c 0,0.5427138 0.2917436,4.5591458 0.4628956,5.2111928 0.5948615,2.26698 2.7624804,2.845183 4.6906274,2.495232 -3.3703567,0.611722 -4.2277391,2.637982 -2.376116,4.664237 3.5166,3.848267 5.05438,-0.965542 5.44859,-2.199014 0.07228,-0.22614 0.106062,-0.331901 0.106503,-0.24194 4.97e-4,-0.08996 0.03415,0.01591 0.106503,0.24194 0.394053,1.233472 1.931786,6.047398 5.44859,2.199014 1.851657,-2.026255 0.9943,-4.052639 -2.376116,-4.664237 1.928199,0.349939 4.095859,-0.228264 4.690627,-2.495232 0.171134,-0.652112 0.462896,-4.668532 0.462896,-5.2111928 0,-2.7174989 -2.233742,-1.8634888 -3.612275,-0.7597574 z"
     fill="#1185fe"
     id="path1-3"
     style="fill:#4e4e4e;fill-opacity:1;stroke-width:0.0296718" /></svg>
