<svg width="940" height="194" viewBox="0 0 940 194" fill="none" xmlns="http://www.w3.org/2000/svg">
<path d="M777.409 97.6966V59.8553H786.954V51.3707H777.409V47.7223C777.312 46.2343 777.748 44.7602 778.64 43.5648C779.488 42.5785 780.92 42.0906 782.945 42.0906C783.737 42.0789 784.527 42.1607 785.3 42.3345C786.007 42.476 786.59 42.6138 787.05 42.7482L789.171 34.2636C788.106 33.9294 787.022 33.6567 785.926 33.4469C784.265 33.1328 782.578 32.9837 780.888 33.0016C778.376 32.9675 775.888 33.489 773.602 34.5287C771.416 35.523 769.572 37.1386 768.299 39.1741C766.938 41.5325 766.269 44.2269 766.369 46.9481V51.3177H759.539V59.8023H766.369V97.6435L777.409 97.6966Z" fill="black"/>
<path d="M557.139 167.143C560.24 165.715 562.831 163.373 564.563 160.43C566.31 157.28 567.185 153.721 567.097 150.121C567.178 146.518 566.315 142.957 564.594 139.791C562.92 136.786 560.366 134.366 557.276 132.855C553.55 131.101 549.461 130.254 545.345 130.384H522.161V192.088H533.339V169.498H544.709L556.842 192.088H569.314L555.961 167.695C556.364 167.504 556.81 167.323 557.139 167.143ZM533.339 139.727H543.584C545.926 139.645 548.259 140.064 550.425 140.957C552.095 141.682 553.481 142.934 554.37 144.521C555.275 146.246 555.72 148.174 555.664 150.121C555.725 152.051 555.279 153.963 554.37 155.668C553.469 157.2 552.091 158.396 550.446 159.072C548.277 159.909 545.961 160.298 543.637 160.218H533.339V139.727Z" fill="black"/>
<path d="M595.637 35.9924H584.735V97.6966H595.637V35.9924Z" fill="black"/>
<path d="M563.704 77.2169C563.4 78.9278 562.766 80.5632 561.837 82.032C560.98 83.4136 559.868 84.6194 558.56 85.5849C557.239 86.5627 555.761 87.3086 554.19 87.7908C552.505 88.2801 550.759 88.523 549.004 88.512C545.869 88.5654 542.785 87.7188 540.116 86.0727C537.424 84.2806 535.309 81.7459 534.029 78.7759C532.461 74.999 531.712 70.9322 531.833 66.8445C531.717 62.8087 532.466 58.7948 534.029 55.0721C535.297 52.0774 537.413 49.519 540.116 47.7118C542.775 46.0078 545.879 45.1294 549.036 45.1876C550.834 45.1653 552.624 45.4303 554.339 45.9724C555.933 46.4463 557.426 47.2123 558.74 48.2315C560.017 49.2485 561.096 50.4925 561.922 51.901C562.813 53.4134 563.413 55.0787 563.693 56.8115H574.967C574.577 53.5988 573.573 50.4913 572.008 47.6587C570.581 45.0362 568.649 42.7222 566.323 40.8499C563.974 38.9596 561.295 37.5212 558.422 36.6076C555.337 35.6251 552.115 35.1381 548.877 35.1651C543.802 35.0822 538.801 36.3839 534.411 38.9302C530.079 41.5192 526.576 45.2905 524.314 49.8011C521.881 55.1575 520.623 60.9722 520.623 66.8551C520.623 72.7379 521.881 78.5528 524.314 83.9092C526.554 88.4241 530.044 92.2009 534.368 94.7907C538.779 97.3427 543.803 98.6443 548.898 98.5557C552.311 98.5985 555.706 98.0495 558.931 96.9329C561.816 95.8935 564.489 94.3414 566.822 92.3513C571.265 88.4668 574.173 83.1215 575.02 77.2806L563.704 77.2169Z" fill="black"/>
<path d="M877.273 70.4926C877.233 68.6643 877.703 66.8609 878.631 65.2851C879.518 63.7909 880.798 62.5693 882.332 61.7534C883.983 60.8768 885.829 60.4318 887.699 60.4596C888.657 60.4639 889.614 60.5348 890.562 60.6716C891.306 60.7408 892.041 60.8829 892.758 61.0959V51.0628C892.131 50.9456 891.496 50.8748 890.859 50.8507C890.117 50.7871 889.438 50.7553 888.844 50.7553C886.308 50.7167 883.826 51.4896 881.759 52.9612C879.66 54.4717 878.131 56.6466 877.422 59.1338H876.934V51.4234H866.328V97.6963H877.241L877.273 70.4926Z" fill="black"/>
<path d="M806.427 35.9924H795.524V97.6966H806.427V35.9924Z" fill="black"/>
<path d="M886.161 147.225C883.58 145.835 880.681 145.14 877.75 145.21C874.674 145.086 871.631 145.884 869.011 147.501C866.747 149 864.994 151.153 863.984 153.674H863.443V130.341H852.774V192.045H863.676V164.937C863.616 162.962 864.054 161.003 864.949 159.242C865.756 157.724 866.992 156.478 868.502 155.657C870.092 154.793 871.879 154.355 873.688 154.384C874.925 154.313 876.162 154.511 877.316 154.963C878.469 155.415 879.511 156.111 880.37 157.004C882.084 159.023 882.95 161.626 882.788 164.269V192.045H893.691V162.583C893.8 159.288 893.12 156.015 891.707 153.037C890.48 150.59 888.548 148.566 886.161 147.225V147.225Z" fill="black"/>
<path d="M939.168 74.2047C939.253 70.6337 938.677 67.0779 937.471 63.7156C936.486 60.97 934.903 58.4777 932.837 56.4189C930.928 54.525 928.625 53.0763 926.091 52.1766C923.5 51.2424 920.764 50.7721 918.01 50.7873C913.953 50.6932 909.953 51.7484 906.471 53.8311C903.168 55.8765 900.516 58.8192 898.824 62.3157C897.035 66.2696 896.109 70.5596 896.109 74.8994C896.109 79.2393 897.035 83.5292 898.824 87.4831C900.534 90.9371 903.228 93.8079 906.566 95.7344C910.247 97.741 914.392 98.7398 918.582 98.6298C921.838 98.6828 925.075 98.1289 928.128 96.9965C930.746 96.0094 933.096 94.422 934.99 92.3617C936.794 90.3604 938.06 87.9336 938.67 85.3089L928.488 84.1635C928.045 85.4085 927.319 86.5338 926.367 87.4513C925.402 88.3427 924.265 89.0283 923.026 89.4664C921.638 89.928 920.183 90.1538 918.72 90.1346C916.551 90.1839 914.408 89.6607 912.505 88.6179C910.732 87.5878 909.298 86.0616 908.38 84.2271C907.382 82.1506 906.881 79.8704 906.916 77.5668H939.147L939.168 74.2047ZM906.969 70.2169C907.054 68.4583 907.521 66.7392 908.337 65.1792C909.256 63.4421 910.617 61.9786 912.283 60.9369C914.039 59.829 916.082 59.2611 918.158 59.3036C920.082 59.2594 921.981 59.7516 923.641 60.7249C925.215 61.6492 926.5 62.9931 927.353 64.6065C928.257 66.3263 928.724 68.2423 928.711 70.1851L906.969 70.2169Z" fill="black"/>
<path d="M615.29 95.6707C618.896 97.633 622.936 98.6611 627.041 98.6611C631.146 98.6611 635.186 97.633 638.792 95.6707C642.105 93.6895 644.772 90.7902 646.471 87.324C648.281 83.3889 649.218 79.1088 649.218 74.7775C649.218 70.4461 648.281 66.1659 646.471 62.2308C644.773 58.7556 642.107 55.8458 638.792 53.8522C635.184 51.8964 631.145 50.8721 627.041 50.8721C622.937 50.8721 618.898 51.8964 615.29 53.8522C611.972 55.8504 609.296 58.7582 607.58 62.2308C605.79 66.1715 604.864 70.4495 604.864 74.7775C604.864 79.1055 605.79 83.3833 607.58 87.324C609.296 90.7883 611.972 93.6857 615.29 95.6707V95.6707ZM617.125 67.0352C617.837 64.8935 619.121 62.9868 620.837 61.5203C622.619 60.1192 624.839 59.394 627.105 59.4733C629.33 59.4012 631.508 60.1273 633.246 61.5203C634.955 62.9861 636.228 64.894 636.926 67.0352C638.566 72.0156 638.566 77.3907 636.926 82.3711C636.228 84.5032 634.954 86.4009 633.246 87.8543C631.504 89.2364 629.327 89.9544 627.105 89.88C624.843 89.9608 622.624 89.2437 620.837 87.8543C619.122 86.3998 617.838 84.5034 617.125 82.3711C615.527 77.384 615.527 72.0223 617.125 67.0352V67.0352Z" fill="black"/>
<path d="M682.668 95.8302C684.984 94.2717 686.779 92.0552 687.823 89.4667H688.321V97.6862H698.927V51.4133H687.971V78.2247C688.049 80.2836 687.537 82.3218 686.497 84.1002C685.6 85.582 684.317 86.7919 682.785 87.6001C681.349 88.3681 679.747 88.7723 678.118 88.7773C676.933 88.8264 675.752 88.6197 674.654 88.1713C673.556 87.723 672.567 87.0435 671.755 86.179C670.078 84.2489 669.215 81.7433 669.347 79.1897V51.4133H658.477V80.8761C658.381 84.1385 659.05 87.3779 660.428 90.3364C661.621 92.8024 663.509 94.8665 665.858 96.2756C668.31 97.6534 671.086 98.3493 673.897 98.2907C677.006 98.404 680.072 97.5439 682.668 95.8302V95.8302Z" fill="black"/>
<path d="M733.862 97.1873C735.475 96.4205 736.917 95.3387 738.105 94.0056C739.054 92.9092 739.872 91.7062 740.544 90.4208H741.212V97.707H751.956V36.0027H740.979V59.0808H740.523C739.858 57.8064 739.061 56.605 738.147 55.496C737.008 54.1223 735.591 53.0054 733.989 52.2189C731.904 51.2207 729.608 50.7439 727.297 50.8295C723.877 50.792 720.519 51.7421 717.625 53.5659C714.599 55.5281 712.205 58.3236 710.731 61.6156C708.923 65.7091 708.057 70.1561 708.196 74.6288C708.072 79.0801 708.926 83.5044 710.699 87.589C712.151 90.8915 714.513 93.7129 717.508 95.7237C720.413 97.6005 723.808 98.5747 727.265 98.5235C729.538 98.5985 731.798 98.141 733.862 97.1873V97.1873ZM720.552 82.3392C719.689 79.8508 719.269 77.2304 719.311 74.597C719.266 71.9911 719.687 69.3981 720.552 66.9397C721.252 64.88 722.525 63.0625 724.222 61.7004C725.973 60.3884 728.122 59.7183 730.309 59.802C732.439 59.7289 734.531 60.3752 736.249 61.6368C737.947 62.9614 739.222 64.7527 739.918 66.7912C740.817 69.2932 741.248 71.9391 741.191 74.597C741.243 77.2719 740.812 79.9343 739.918 82.4559C739.209 84.537 737.926 86.3752 736.217 87.7588C734.516 89.0316 732.433 89.6897 730.309 89.6254C728.131 89.6957 725.994 89.0183 724.253 87.7057C722.549 86.2789 721.268 84.4117 720.552 82.3074V82.3392Z" fill="black"/>
<path d="M794.548 145.146C792.012 145.108 789.53 145.881 787.464 147.352C785.368 148.866 783.84 151.04 783.126 153.525H782.649V145.815H772.107V192.087H783.009V164.884C782.974 163.056 783.443 161.254 784.367 159.676C785.239 158.183 786.5 156.955 788.015 156.123C789.667 155.248 791.513 154.803 793.382 154.829C794.34 154.834 795.297 154.905 796.245 155.042C796.989 155.108 797.725 155.251 798.441 155.466V145.433C797.814 145.316 797.179 145.245 796.542 145.221C795.821 145.178 795.153 145.146 794.548 145.146Z" fill="black"/>
<path d="M818.21 155.816C819.92 154.6 821.976 153.964 824.075 154.003C825.221 153.944 826.368 154.114 827.448 154.504C828.528 154.894 829.519 155.495 830.364 156.272C831.951 157.75 833.012 159.705 833.386 161.84H843.801C843.652 158.737 842.647 155.736 840.899 153.169C839.151 150.601 836.727 148.566 833.895 147.289C830.772 145.837 827.36 145.111 823.915 145.168C819.794 145.065 815.727 146.12 812.175 148.212C808.859 150.245 806.201 153.191 804.518 156.696C802.642 160.574 801.712 164.841 801.803 169.148C801.721 173.433 802.628 177.679 804.454 181.556C806.152 185.023 808.795 187.938 812.079 189.967C815.685 192.07 819.806 193.124 823.979 193.01C827.473 193.086 830.938 192.361 834.108 190.889C836.864 189.563 839.215 187.524 840.916 184.982C842.609 182.375 843.602 179.376 843.801 176.275H833.386C833.117 177.804 832.508 179.254 831.605 180.517C830.781 181.659 829.688 182.581 828.423 183.2C826.779 183.931 824.976 184.232 823.184 184.074C821.392 183.917 819.669 183.306 818.178 182.299C816.423 180.959 815.079 179.155 814.296 177.091C813.314 174.494 812.842 171.732 812.907 168.957C812.84 166.219 813.312 163.495 814.296 160.939C815.094 158.898 816.45 157.122 818.21 155.816V155.816Z" fill="black"/>
<path d="M707.793 150.821C705.887 148.924 703.583 147.475 701.048 146.578C698.458 145.639 695.722 145.168 692.967 145.189C688.913 145.093 684.916 146.149 681.438 148.233C678.13 150.275 675.474 153.218 673.781 156.717C671.991 160.669 671.065 164.958 671.065 169.296C671.065 173.634 671.991 177.922 673.781 181.874C675.49 185.331 678.184 188.206 681.523 190.136C685.203 192.143 689.349 193.141 693.539 193.031C696.794 193.081 700.031 192.527 703.084 191.398C705.704 190.408 708.057 188.821 709.957 186.763C711.757 184.761 713.02 182.334 713.626 179.711L703.445 178.565C703.004 179.811 702.277 180.937 701.324 181.853C700.358 182.744 699.222 183.43 697.983 183.868C696.594 184.326 695.139 184.548 693.677 184.526C691.509 184.578 689.366 184.059 687.462 183.02C685.688 181.989 684.254 180.463 683.336 178.629C682.345 176.55 681.844 174.271 681.873 171.968H714.104V168.617C714.185 165.051 713.614 161.499 712.417 158.139C711.438 155.387 709.858 152.887 707.793 150.821V150.821ZM681.958 164.608C682.041 162.848 682.512 161.128 683.336 159.57C684.259 157.836 685.619 156.374 687.282 155.328C689.039 154.224 691.082 153.66 693.157 153.705C695.081 153.664 696.979 154.156 698.641 155.127C700.209 156.054 701.49 157.397 702.342 159.008C703.252 160.726 703.719 162.643 703.7 164.587L681.958 164.608Z" fill="black"/>
<path d="M651.042 165.669L643.151 163.982C641.329 163.656 639.602 162.932 638.092 161.861C637.606 161.467 637.22 160.964 636.964 160.393C636.708 159.822 636.589 159.199 636.618 158.574C636.614 157.791 636.822 157.022 637.22 156.348C637.617 155.674 638.19 155.12 638.877 154.745C640.604 153.711 642.593 153.199 644.604 153.271C646.061 153.235 647.507 153.513 648.846 154.087C649.927 154.559 650.877 155.287 651.615 156.208C652.294 157.042 652.795 158.006 653.089 159.04L663.037 157.98C662.401 154.217 660.314 150.854 657.225 148.615C654.107 146.303 649.836 145.147 644.413 145.147C641.067 145.083 637.741 145.678 634.624 146.897C632.018 147.885 629.736 149.573 628.027 151.775C626.439 153.918 625.62 156.534 625.705 159.199C625.649 160.738 625.902 162.271 626.448 163.71C626.995 165.149 627.824 166.464 628.886 167.578C631.008 169.763 634.292 171.318 638.739 172.244L646.64 173.899C648.344 174.177 649.955 174.861 651.339 175.893C651.828 176.286 652.221 176.785 652.487 177.353C652.754 177.921 652.887 178.543 652.877 179.17C652.856 179.978 652.625 180.767 652.206 181.459C651.788 182.15 651.196 182.721 650.49 183.115C648.621 184.266 646.447 184.825 644.254 184.717C642.099 184.814 639.965 184.256 638.135 183.115C636.536 181.998 635.436 180.301 635.07 178.385L624.464 179.446C624.728 181.45 625.414 183.375 626.478 185.094C627.543 186.813 628.96 188.286 630.636 189.415C634.094 191.791 638.654 192.979 644.318 192.979C647.824 193.045 651.308 192.407 654.563 191.101C657.304 190.031 659.707 188.244 661.52 185.926C663.204 183.71 664.106 180.998 664.087 178.215C664.138 176.72 663.874 175.232 663.313 173.845C662.752 172.458 661.907 171.205 660.831 170.166C658.653 168.129 655.39 166.63 651.042 165.669Z" fill="black"/>
<path d="M610.899 150.821C608.995 148.921 606.691 147.472 604.154 146.578C601.568 145.639 598.834 145.169 596.083 145.189C592.026 145.092 588.025 146.148 584.544 148.233C581.236 150.275 578.58 153.218 576.886 156.718C575.097 160.669 574.171 164.958 574.171 169.296C574.171 173.634 575.097 177.922 576.886 181.874C578.6 185.329 581.293 188.202 584.629 190.136C588.313 192.144 592.462 193.143 596.656 193.032C599.911 193.082 603.147 192.528 606.201 191.398C608.821 190.408 611.174 188.821 613.073 186.764C614.874 184.761 616.136 182.334 616.743 179.711L606.561 178.565C606.123 179.813 605.396 180.939 604.44 181.853C603.471 182.745 602.331 183.43 601.089 183.868C599.7 184.326 598.245 184.548 596.783 184.526C594.618 184.58 592.478 184.06 590.579 183.02C588.8 181.996 587.364 180.468 586.453 178.629C585.455 176.552 584.954 174.272 584.989 171.968H617.263V168.617C617.344 165.051 616.772 161.5 615.576 158.139C614.581 155.382 612.983 152.882 610.899 150.821ZM585.032 164.608C585.115 162.848 585.586 161.128 586.41 159.57C587.333 157.836 588.693 156.374 590.356 155.328C592.113 154.224 594.156 153.66 596.231 153.705C598.155 153.664 600.053 154.156 601.715 155.127C603.285 156.051 604.567 157.395 605.416 159.008C606.326 160.726 606.793 162.643 606.773 164.587L585.032 164.608Z" fill="black"/>
<path d="M855.393 97.6966V66.7277C855.487 64.067 854.907 61.4256 853.707 59.0492C852.681 57.0788 851.166 55.406 849.306 54.1918C847.456 52.9781 845.405 52.1019 843.25 51.6039C841.068 51.085 838.832 50.8217 836.589 50.8191C833.576 50.7819 830.579 51.27 827.734 52.2615C825.174 53.1259 822.852 54.5789 820.956 56.5038C819.058 58.482 817.689 60.9081 816.979 63.5566L827.161 64.999C827.769 63.3279 828.881 61.8866 830.342 60.8733C832.217 59.6135 834.451 58.9992 836.706 59.1235C838.811 58.9809 840.89 59.6488 842.518 60.9901C843.217 61.6767 843.759 62.5056 844.109 63.4207C844.458 64.3358 844.607 65.3155 844.544 66.293V66.4732C844.574 66.9303 844.48 67.3871 844.273 67.7957C844.066 68.2043 843.753 68.5498 843.366 68.7959C842.222 69.3904 840.971 69.751 839.686 69.8565C838.003 70.0828 835.804 70.3337 833.089 70.6095C830.886 70.8455 828.703 71.2389 826.556 71.7867C824.57 72.2638 822.67 73.0475 820.925 74.1094C819.272 75.1067 817.909 76.5177 816.969 78.2032C815.938 80.2029 815.441 82.4351 815.526 84.6833C815.435 87.3779 816.135 90.0401 817.541 92.3406C818.905 94.403 820.83 96.0331 823.088 97.039C825.591 98.1081 828.29 98.6392 831.011 98.598C833.152 98.6419 835.285 98.308 837.31 97.6117C838.966 97.0166 840.489 96.1053 841.797 94.9285C842.934 93.8958 843.882 92.6717 844.597 91.3119H844.968V97.6754L855.393 97.6966ZM844.522 81.0986C844.532 82.7683 844.073 84.4071 843.197 85.8287C842.294 87.3058 841.012 88.5144 839.485 89.3286C837.724 90.2272 835.766 90.6719 833.789 90.6225C831.808 90.7039 829.851 90.1665 828.19 89.0847C827.466 88.5762 826.883 87.8916 826.497 87.0955C826.111 86.2994 825.934 85.4182 825.984 84.5348C825.926 83.2906 826.326 82.0683 827.108 81.0986C827.922 80.1407 828.971 79.41 830.152 78.9774C831.558 78.4554 833.021 78.0995 834.511 77.9168L837.077 77.5563C838.064 77.4184 839.05 77.2486 840.057 77.0683C840.973 76.9072 841.879 76.6984 842.772 76.4426C843.397 76.2861 843.99 76.0204 844.522 75.6578V81.0986Z" fill="black"/>
<path d="M755.021 148.583C753.171 147.369 751.121 146.492 748.965 145.995C746.782 145.477 744.547 145.214 742.304 145.21C739.291 145.172 736.294 145.66 733.449 146.653C730.887 147.52 728.563 148.972 726.661 150.895C724.764 152.871 723.397 155.293 722.684 157.937L732.876 159.39C733.483 157.718 734.595 156.277 736.058 155.265C737.934 154.008 740.167 153.394 742.421 153.515C744.525 153.374 746.604 154.042 748.233 155.381C748.93 156.068 749.471 156.898 749.819 157.813C750.167 158.728 750.313 159.707 750.248 160.684V160.864C750.278 161.322 750.185 161.778 749.977 162.187C749.77 162.595 749.457 162.941 749.071 163.187C747.928 163.775 746.682 164.136 745.401 164.248C743.715 164.47 741.509 164.725 738.805 165.001C736.598 165.236 734.411 165.629 732.261 166.178C730.274 166.655 728.374 167.439 726.629 168.501C724.983 169.502 723.623 170.912 722.684 172.594C721.649 174.593 721.148 176.825 721.231 179.075C721.143 181.77 721.847 184.432 723.257 186.732C724.616 188.794 726.537 190.424 728.793 191.43C731.299 192.5 734.001 193.032 736.726 192.989C738.864 193.033 740.993 192.699 743.015 192.003C746.155 190.898 748.761 188.648 750.312 185.703H750.672V192.067H761.161V161.098C761.256 158.432 760.673 155.786 759.465 153.409C758.419 151.447 756.889 149.786 755.021 148.583V148.583ZM750.227 175.49C750.237 177.159 749.777 178.798 748.901 180.22C748.003 181.697 746.725 182.905 745.2 183.72C743.438 184.616 741.481 185.06 739.505 185.014C737.521 185.09 735.562 184.553 733.894 183.476C733.172 182.966 732.592 182.281 732.208 181.485C731.824 180.689 731.649 179.808 731.699 178.926C731.642 177.684 732.038 176.463 732.812 175.49C733.629 174.534 734.677 173.804 735.856 173.369C737.266 172.845 738.733 172.489 740.226 172.308L742.782 171.947C743.768 171.81 744.765 171.64 745.773 171.46C746.684 171.297 747.587 171.088 748.477 170.834C749.103 170.681 749.696 170.415 750.227 170.049V175.49Z" fill="black"/>
<path d="M293.274 182.477C295.898 173.479 294.899 165.23 290.525 159.105C286.527 153.481 279.779 150.231 271.657 149.857L117.835 147.857C116.835 147.857 115.96 147.357 115.46 146.607C114.96 145.857 114.836 144.857 115.085 143.857C115.585 142.357 117.085 141.233 118.709 141.108L273.906 139.108C292.275 138.233 312.268 123.36 319.265 105.112L328.137 81.9899C328.512 80.99 328.637 79.9901 328.387 78.9903C318.391 33.7458 278.029 0 229.796 0C185.311 0 147.574 28.7465 134.079 68.6165C125.332 62.1173 114.211 58.6178 102.215 59.7426C80.8472 61.8674 63.7281 78.9902 61.6038 100.363C61.104 105.862 61.4789 111.236 62.7284 116.236C27.8654 117.236 0 145.732 0 180.853C0 183.977 0.249914 187.102 0.624785 190.227C0.8747 191.726 2.12426 192.851 3.62375 192.851H287.526C289.151 192.851 290.65 191.726 291.15 190.102L293.274 182.477Z" fill="#4693FF"/>
<path d="M342.964 84C341.589 84 340.09 84 338.715 84.125C337.716 84.125 336.841 84.8749 336.466 85.8748L330.468 106.747C327.844 115.746 328.844 123.995 333.217 130.119C337.216 135.744 343.964 138.993 352.086 139.368L384.825 141.368C385.824 141.368 386.699 141.868 387.199 142.618C387.699 143.368 387.824 144.493 387.574 145.367C387.074 146.867 385.574 147.992 383.95 148.117L349.837 150.117C331.343 150.992 311.475 165.865 304.477 184.113L301.978 190.487C301.478 191.737 302.353 192.987 303.727 192.987H420.937C422.312 192.987 423.561 192.112 423.936 190.737C425.935 183.488 427.06 175.864 427.06 167.99C427.06 121.745 389.323 84 342.964 84Z" fill="#0051C3"/>
<path d="M159.936 167.385L156.213 170.885C159.81 174.701 163.685 178.246 167.805 181.491L170.987 177.461C167.06 174.394 163.373 171.033 159.957 167.406L159.936 167.385Z" fill="white"/>
<path d="M142.955 153.534C145.684 157.994 148.736 162.247 152.087 166.261L156.021 162.973C152.818 159.167 149.911 155.122 147.325 150.872L142.955 153.534Z" fill="white"/>
<path d="M76.4668 137.032C80.5513 140.582 85.2148 143.405 90.2543 145.379L92.1209 140.616C87.6223 138.864 83.4575 136.353 79.8076 133.192L76.4668 137.032Z" fill="white"/>
<path d="M63.7617 119.935C65.9492 124.897 68.9735 129.446 72.7024 133.383L76.425 129.872C73.1023 126.36 70.4081 122.303 68.4601 117.877L63.7617 119.935Z" fill="white"/>
<path d="M103.65 130.954L106.917 127.02C102.826 123.61 98.3308 120.717 93.5322 118.408L91.3262 123C95.7412 125.142 99.8795 127.813 103.65 130.954V130.954Z" fill="white"/>
<path d="M120.035 153.82C122.148 158.254 123.704 162.931 124.67 167.746L129.676 166.759C128.635 161.531 126.961 156.449 124.691 151.625L120.035 153.82Z" fill="white"/>
<path d="M71.7051 117.379C76.5794 117.907 81.3702 119.033 85.9698 120.73L87.7516 115.884C82.7536 114.048 77.5501 112.83 72.2566 112.256L71.7051 117.379Z" fill="white"/>
<path d="M129.899 188.47C130.335 185.413 130.555 182.33 130.556 179.243C130.583 177.721 130.53 176.198 130.397 174.682C130.397 173.972 130.281 173.25 130.217 172.561L125.126 173.081C125.126 173.728 125.253 174.385 125.296 175.043C125.402 176.432 125.444 177.853 125.444 179.285C125.445 182.124 125.243 184.96 124.84 187.77L129.899 188.47Z" fill="white"/>
<path d="M232.585 189.17H227.473V173.802H232.585V189.17ZM232.585 168.817H227.473V153.471H232.585V168.817Z" fill="white"/>
<path d="M133.759 111.715L128.689 112.331C129.324 117.538 130.356 122.69 131.776 127.741L136.697 126.341C135.348 121.547 134.366 116.658 133.759 111.715V111.715Z" fill="white"/>
<path d="M133.027 99.6148V97.939C133.027 95.5209 133.197 93.2089 133.398 90.8757L128.308 90.4302C128.095 92.8483 127.958 95.3725 127.926 97.8542V99.6148C127.926 101.736 128 103.974 128.127 106.137L133.239 105.819C133.091 103.783 133.027 101.694 133.027 99.6148Z" fill="white"/>
<path d="M137.397 70.4802L132.561 68.9849C131.015 73.9908 129.852 79.1068 129.082 84.2889L134.141 85.042C134.863 80.114 135.952 75.2465 137.397 70.4802V70.4802Z" fill="white"/>
<path d="M140.314 130.615L144.143 134.019C147.735 129.971 150.605 125.336 152.628 120.317L147.898 118.408C146.1 122.883 143.542 127.013 140.336 130.615H140.314Z" fill="white"/>
<path d="M150.125 102.627C150.134 104.161 150.052 105.694 149.881 107.219C149.671 109.232 149.317 111.228 148.82 113.19L153.784 114.41C154.345 112.214 154.749 109.981 154.993 107.728C155.175 106.019 155.267 104.302 155.269 102.584C155.269 101.174 155.205 99.7418 155.078 98.3418L149.976 98.7873C150.051 100.134 150.125 101.407 150.125 102.627Z" fill="white"/>
<path d="M148.523 93.9828L153.497 92.848C152.283 87.5784 150.174 82.5561 147.261 78L142.955 80.7469C145.556 84.8187 147.439 89.3063 148.523 94.0146V93.9828Z" fill="white"/>
<path d="M142.022 140.807C140.686 137.901 139.466 134.942 138.395 131.93L133.559 133.606C134.4 136.031 135.344 138.453 136.39 140.871L142.022 140.807Z" fill="white"/>
<path d="M137.578 67.0337L135.457 71.87C137.139 73.3155 138.707 74.8899 140.145 76.5789L144.048 73.2805C142.112 70.9988 139.964 68.9071 137.631 67.0337H137.578Z" fill="white"/>
<path d="M95.4414 147.17C100.745 148.272 106.2 148.444 111.562 147.679L110.841 142.61C106.061 143.29 101.199 143.139 96.4702 142.165L95.4414 147.17Z" fill="white"/>
<path d="M175.303 181.724L172.291 185.85C175.649 188.301 179.148 190.554 182.769 192.595H186.397L187.945 189.615C183.538 187.308 179.312 184.67 175.303 181.724Z" fill="white"/>
<path d="M107.936 134.889C110.746 137.696 113.268 140.776 115.466 144.084V143.883C115.736 143.077 116.247 142.374 116.929 141.868C117.609 141.368 118.429 141.093 119.273 141.083H119.612C117.246 137.559 114.543 134.274 111.541 131.272L107.936 134.889Z" fill="white"/>
<path d="M232.585 16.2536V0.0585938H227.473V16.2641L232.585 16.2536Z" fill="white"/>
<path d="M328.948 80.0786V79.1453C328.922 78.9057 328.865 78.6704 328.778 78.4453H316.635V83.5361H327.856L328.46 81.9346C328.82 81.375 328.978 80.7085 328.906 80.0468L328.948 80.0786Z" fill="white"/>
<path d="M232.574 96.8037H227.473V112.924H232.574V96.8037Z" fill="white"/>
<path d="M232.574 121.006H227.473V137.127H232.574V121.006Z" fill="white"/>
<path d="M232.574 48.3994H227.473V64.5201H232.574V48.3994Z" fill="white"/>
<path d="M232.574 24.2075H227.473V40.3176H232.574V24.2075Z" fill="white"/>
<path d="M309.071 78.4453H293.672V83.5679H309.071V78.4453Z" fill="white"/>
<path d="M270.68 78.4453V83.5679H286.09L286.005 78.4453H270.68Z" fill="white"/>
<path d="M247.654 78.4453V83.5679H263.096L263.001 78.4453H247.654Z" fill="white"/>
<path d="M232.585 78.4455V72.6123H227.473V88.7224H232.585V83.568H240.104V78.4455H232.585Z" fill="white"/>
</svg>
