<svg width="849" height="89" viewBox="0 0 849 89" fill="none" xmlns="http://www.w3.org/2000/svg">
<path d="M132.879 86.8282L133.86 83.3777C135.052 79.2934 134.608 75.4908 132.622 72.721C130.8 70.1624 127.763 68.6602 124.072 68.4724L54.2243 67.5804C53.7571 67.5569 53.36 67.3457 53.1264 66.9936C52.8928 66.6415 52.8227 66.172 52.9862 65.726C53.2198 65.0453 53.8973 64.5054 54.5981 64.482L125.077 63.59C133.44 63.2144 142.48 56.3838 145.657 48.0744L149.675 37.5116C149.792 37.2299 149.839 36.9248 149.839 36.6196C149.839 36.4553 149.815 36.291 149.792 36.1267C145.26 15.494 126.922 0.0722656 105.033 0.0722656C84.8499 0.0722656 67.7033 13.1702 61.5595 31.3617C57.5882 28.3806 52.519 26.7845 47.0526 27.3243C37.358 28.2867 29.579 36.1267 28.6212 45.8679C28.3642 48.403 28.5745 50.8207 29.1585 53.1211C13.3434 53.5905 0.658691 66.618 0.658691 82.6031C0.658691 84.0584 0.775494 85.4668 0.962378 86.8751C1.05582 87.5559 1.63983 88.0488 2.31729 88.0488L131.244 88.0723C131.267 88.0723 131.267 88.0723 131.291 88.0723C132.015 88.0488 132.669 87.5559 132.879 86.8282Z" fill="#F6821F"/>
<path d="M156.146 38.2861C155.492 38.2861 154.861 38.3096 154.207 38.3331C154.091 38.3331 153.997 38.3566 153.904 38.4035C153.577 38.5209 153.296 38.8025 153.203 39.1546L150.446 48.6846C149.255 52.7689 149.699 56.5715 151.684 59.3413C153.507 61.8999 156.543 63.4022 160.234 63.5899L175.115 64.4819C175.559 64.5054 175.933 64.7166 176.166 65.0687C176.423 65.4208 176.47 65.8903 176.33 66.3363C176.096 67.017 175.419 67.5569 174.718 67.5803L159.253 68.4723C150.867 68.8713 141.803 75.6785 138.626 83.9879L137.505 86.922C137.294 87.4619 137.691 88.0253 138.229 88.0487C138.252 88.0487 138.252 88.0487 138.275 88.0487H191.514C192.145 88.0487 192.706 87.6262 192.892 87.0159C193.827 83.7062 194.317 80.2322 194.317 76.6174C194.317 55.4683 177.217 38.2861 156.146 38.2861Z" fill="#FBAD41"/>
<path d="M253.022 55.4917H261.829V79.6923H277.247V87.4384H253.022V55.4917Z" fill="#222222"/>
<path d="M286.381 71.5472V71.4533C286.381 62.2754 293.739 54.8345 303.551 54.8345C313.362 54.8345 320.628 62.1815 320.628 71.3594V71.4533C320.628 80.6312 313.269 88.0721 303.458 88.0721C293.646 88.0721 286.381 80.7251 286.381 71.5472ZM311.634 71.5472V71.4533C311.634 66.8526 308.317 62.8153 303.458 62.8153C298.645 62.8153 295.421 66.7353 295.421 71.3594V71.4533C295.421 76.054 298.739 80.0913 303.551 80.0913C308.41 80.0913 311.634 76.1714 311.634 71.5472Z" fill="#222222"/>
<path d="M331.42 73.425V55.4917H340.367V73.2607C340.367 77.8614 342.68 80.0679 346.23 80.0679C349.781 80.0679 352.094 77.9788 352.094 73.4954V55.5152H361.041V73.2372C361.041 83.5653 355.178 88.0721 346.137 88.0721C337.097 88.0252 331.42 83.4245 331.42 73.425Z" fill="#222222"/>
<path d="M374.543 55.4917H386.808C398.161 55.4917 404.749 62.0641 404.749 71.289V71.3829C404.749 80.6077 398.068 87.4618 386.621 87.4618H374.543V55.4917ZM386.948 79.5984C392.228 79.5984 395.708 76.6878 395.708 71.5237V71.4298C395.708 66.3127 392.204 63.3551 386.948 63.3551H383.35V79.5984H386.948Z" fill="#222222"/>
<path d="M417.55 55.4917H443.013V63.2378H426.381V68.6835H441.425V76.0305H426.381V87.4384H417.55V55.4917Z" fill="#222222"/>
<path d="M455.277 55.4917H464.084V79.6923H479.479V87.4384H455.277V55.4917Z" fill="#222222"/>
<path d="M502.535 55.2568H511.039L524.588 87.4382H515.127L512.814 81.7343H500.55L498.284 87.4382H489.01L502.535 55.2568ZM510.244 74.8332L506.694 65.7492L503.096 74.8332H510.244Z" fill="#222222"/>
<path d="M535.918 55.4917H550.962C555.821 55.4917 559.185 56.7827 561.311 58.9657C563.18 60.7966 564.137 63.2612 564.137 66.4066V66.5005C564.137 71.3829 561.544 74.6221 557.597 76.3122L565.189 87.4618H555.004L548.603 77.791H544.725V87.4618H535.918V55.4917ZM550.542 70.8195C553.532 70.8195 555.26 69.3642 555.26 67.0404V66.9465C555.26 64.4349 553.438 63.1673 550.495 63.1673H544.725V70.843H550.542V70.8195Z" fill="#222222"/>
<path d="M576.846 55.4917H602.425V63.0265H585.583V67.8619H600.837V74.8334H585.583V79.9035H602.659V87.4384H576.846V55.4917Z" fill="#222222"/>
<path d="M233.727 75.3029C232.488 78.0961 229.895 80.0913 226.438 80.0913C221.626 80.0913 218.309 76.0775 218.309 71.4533V71.3594C218.309 66.7587 221.532 62.8153 226.345 62.8153C229.965 62.8153 232.745 65.0687 233.913 68.1202H243.211C241.716 60.5149 235.081 54.8345 226.438 54.8345C216.627 54.8345 209.268 62.2754 209.268 71.4533V71.5472C209.268 80.7251 216.533 88.0721 226.345 88.0721C234.731 88.0721 241.295 82.603 243.024 75.2794H233.727V75.3029Z" fill="#222222"/>
<path d="M646.669 87.332H653.435V75.9883H658.372L664.435 87.332H671.903L665.106 74.8945C668.747 73.332 670.763 70.1602 670.763 65.7852C670.763 59.4258 666.56 55.332 659.294 55.332H646.669V87.332ZM653.435 70.5508V60.8633H657.997C661.903 60.8633 663.794 62.5977 663.794 65.7852C663.794 68.957 661.903 70.5508 658.028 70.5508H653.435Z" fill="#222222"/>
<path d="M686.85 87.8008C692.787 87.8008 696.787 84.9102 697.725 80.457L691.568 80.0508C690.897 81.8789 689.178 82.832 686.959 82.832C683.631 82.832 681.522 80.6289 681.522 77.0508V77.0352H697.865V75.207C697.865 67.0508 692.928 63.0195 686.584 63.0195C679.522 63.0195 674.943 68.0352 674.943 75.4414C674.943 83.0508 679.459 87.8008 686.85 87.8008ZM681.522 72.9102C681.662 70.1758 683.74 67.9883 686.693 67.9883C689.584 67.9883 691.584 70.0508 691.6 72.9102H681.522Z" fill="#222222"/>
<path d="M723.058 70.1758C722.464 65.7539 718.902 63.0195 712.839 63.0195C706.698 63.0195 702.652 65.8633 702.667 70.4883C702.652 74.082 704.917 76.4102 709.605 77.3477L713.761 78.1758C715.855 78.5977 716.808 79.3633 716.839 80.5664C716.808 81.9883 715.261 83.0039 712.933 83.0039C710.558 83.0039 708.98 81.9883 708.573 80.0352L702.027 80.3789C702.652 84.9727 706.558 87.8008 712.917 87.8008C719.136 87.8008 723.589 84.6289 723.605 79.8945C723.589 76.4258 721.323 74.3477 716.667 73.3945L712.323 72.5195C710.089 72.0352 709.261 71.2695 709.277 70.1133C709.261 68.6758 710.886 67.7383 712.948 67.7383C715.261 67.7383 716.636 69.0039 716.964 70.5508L723.058 70.1758Z" fill="#222222"/>
<path d="M739.614 87.8008C745.551 87.8008 749.551 84.9102 750.489 80.457L744.332 80.0508C743.661 81.8789 741.942 82.832 739.723 82.832C736.395 82.832 734.286 80.6289 734.286 77.0508V77.0352H750.629V75.207C750.629 67.0508 745.692 63.0195 739.348 63.0195C732.286 63.0195 727.707 68.0352 727.707 75.4414C727.707 83.0508 732.223 87.8008 739.614 87.8008ZM734.286 72.9102C734.426 70.1758 736.504 67.9883 739.457 67.9883C742.348 67.9883 744.348 70.0508 744.364 72.9102H734.286Z" fill="#222222"/>
<path d="M762.697 87.7852C766.244 87.7852 768.541 86.2383 769.712 84.0039H769.9V87.332H776.212V71.1445C776.212 65.4258 771.369 63.0195 766.025 63.0195C760.275 63.0195 756.494 65.7695 755.572 70.1445L761.728 70.6445C762.181 69.0508 763.603 67.8789 765.994 67.8789C768.259 67.8789 769.556 69.0195 769.556 70.9883V71.082C769.556 72.6289 767.916 72.832 763.744 73.2383C758.994 73.6758 754.728 75.2695 754.728 80.6289C754.728 85.3789 758.119 87.7852 762.697 87.7852ZM764.603 83.1914C762.556 83.1914 761.087 82.2383 761.087 80.4102C761.087 78.5352 762.634 77.6133 764.978 77.2852C766.431 77.082 768.806 76.7383 769.603 76.207V78.7539C769.603 81.2695 767.525 83.1914 764.603 83.1914Z" fill="#222222"/>
<path d="M782.256 87.332H788.913V73.7539C788.913 70.8008 791.069 68.7695 794.006 68.7695C794.928 68.7695 796.194 68.9258 796.819 69.1289V63.2227C796.225 63.082 795.397 62.9883 794.725 62.9883C792.038 62.9883 789.835 64.5508 788.96 67.5195H788.71V63.332H782.256V87.332Z" fill="#222222"/>
<path d="M810.867 87.8008C817.258 87.8008 821.273 84.0508 821.586 78.5352H815.304C814.914 81.0977 813.226 82.5352 810.945 82.5352C807.836 82.5352 805.82 79.9258 805.82 75.332C805.82 70.8008 807.851 68.207 810.945 68.207C813.383 68.207 814.945 69.8164 815.304 72.207H821.586C821.304 66.6602 817.101 63.0195 810.836 63.0195C803.554 63.0195 799.054 68.0664 799.054 75.4258C799.054 82.7227 803.476 87.8008 810.867 87.8008Z" fill="#222222"/>
<path d="M833.384 73.457C833.399 70.3633 835.29 68.5508 838.009 68.5508C840.712 68.5508 842.306 70.2852 842.29 73.2383V87.332H848.946V72.0508C848.962 66.4258 845.649 63.0195 840.649 63.0195C837.009 63.0195 834.571 64.7383 833.477 67.5664H833.196V55.332H826.727V87.332H833.384V73.457Z" fill="#222222"/>
</svg>
